<mxfile host="65bd71144e">
    <diagram id="HIP3nbAZw_EuaXWnEj3U" name="Page-1">
        <mxGraphModel dx="1316" dy="1990" grid="1" gridSize="10" guides="1" tooltips="1" connect="1" arrows="1" fold="1" page="1" pageScale="1" pageWidth="850" pageHeight="1100" math="0" shadow="0">
            <root>
                <mxCell id="0"/>
                <mxCell id="1" parent="0"/>
                <mxCell id="7" value="http://ics2o.mths.ca" style="swimlane;whiteSpace=wrap;html=1;" parent="1" vertex="1">
                    <mxGeometry x="70" y="-130" width="1030" height="1270" as="geometry"/>
                </mxCell>
                <mxCell id="8" value="" style="shape=image;verticalLabelPosition=bottom;labelBackgroundColor=default;verticalAlign=top;aspect=fixed;imageAspect=0;image=data:image/png,iVBORw0KGgoAAAANSUhEUgAABLAAAASwCAYAAADrIbPPAAAABmJLR0QA/wD/AP+gvaeTAAAgAElEQVR4nOzdebhmZ13n60+lUpkTCGQgzDMhyKyGWRRkUlARadtGFLQR21a4jgrdevrosfsofbBbEDk0Nto0DsyNEgYhKMggMsrQYZ5CgIwQkpChKklx/li7JIQMtd79vmvt4b6va117s2vvXd+ngPX8nt9a61kFAAAAAAAAAAAAAAAAAAAAAAAAAAAAAAAAAAAAAAAAAAAAAAAAAAAAAAAAAAAAAAAAAAAAAAAAAAAAAAAAAAAAAAAAAAAAAAAAAAAAAAAAAAAAAAAAAAAAAAAAAAAAAAAAAAAAAAAAAAAAAAAAAAAAAAAAAAAAAAAAAAAAAAAAAAAAAAAAAAAAAAAAAAAAAAAAAAAAAAAAAAAAAAAAAAAAAAAAAAAAAAAAAAAAAAAAAAAAAAAAAAAAAAAAAAAAAAAAAAAAAAAAAAAAAAAAAAAAAAAAAAAAAAAAAAAAAAAAAAAAAAAAAAAAAAAAAAAAAAAAAAAAAAAAAAAAAAAAAAAAAAAAAAAAAAAAAAAAAAAAAAAAAAAAAAAAAAAAAAAAAAAAAAAAAAAAAAAAAAAAAAAAAAAAAAAAAAAAAAAAAAAAAAAAAAAAAAAAAAAAAAAAAAAAAAAAAAAAAAAAAAAAAAAAAAAAAAAAAAAAAAAAAAAAAAAAAAAAAAAAAAAAAAAAAAAAAAAAAAAAAAAAAAAAAAAAAAAAAAAAAAAAAAAAAAAAAAAAAAAAAAAAAAAAAAAAAAAAAAAAAAAAAAAAAAAAAAAAAAAAAAAAAAAAAAAAAAAAAAAAAAAAAAAAAAAAAAAAAAAAAAAAAAAAAAAAAAAAAAAAAAAAAAAAAAAAAAAAAAAAAAAAAAAAAAAAAAAAAAAAAAAAAMBq7Zg7AADAiuysjq5uuPZx3+c3XPuzo6qDq8Oqw6uDqhtUB659vPqfXd2u6ohr+Pq++uqb1/Bn36guv4av764uqS6u9lQXVFesfdyz9vVL1r7vwurK6utrx/lrx77Pr7yG3w8AsKlpYAEAm8Gh1XHVCdWxa8e+z4/qmhtVR82SdH4X9u0NrX2fX1idU51Znbt27Pv80lmSAgDsJw0sAGBOR1e3qG65dty0Oqa6SUNz6ri1z6/pTieW5xt9e2PrrOq86ivVF6vTqzMaGmEAAJPTwAIAVuWQvtWUumV1q4Zm1VUbVhpTm8tFDQ2tLzY0tM64yn/+8trH3bOlAwC2LA0sAGBRO6rbVLe9luPo+aIxo/Orz13L8fmueW8wAIDrpIEFAFyfAxoaVSdV96xuv3bcruERP9hfZ1efrT6zdvxT9bHqC9Xe+WIBABudBhYAsM+uhsbUSdWJ1V3WPt654XFAWJVLq09UH69OW/v8tIZm1xUz5gIANggNLADYfnZWd6rutfbxxIam1R0amliwUeypPt1wl9Yn1o5/qj5VXTljLgBgYhpYALC1HVzdteHRv33H3arD5gwF63Rx9ZGGZta+46MNDS8AYAvSwAKAreOg6uS+vVl1Uu6qYnu4vOGxw6s2td6z9nUAYJPTwAKAzevW1X0amlYnNzwSePCcgWCDuayhkfWPDc2sf6xOnzURALAQDSwA2ByOrL6nb29YHT9rIticzmpoZr2nenf1/uobsyYCAK6XBhYAbEwnVt/X0Kj6noY3Ae6cNdHmdMHVjq+vfby4oWlx+drXLq8uarhj59Kr/dkV1YXX8Lv3rv2uMW5QHXANXz+qOrC6YcOjoIc37FN28NX+bFd1xNpxg2s5GOfKhkcP399wh9bfN2wSDwBsIBpYALAxnNTQsNp33GTeOBvOFdW5a8eZ1Tlrn5+19vnX+s5m1fmzJJ3f0X2rmXXDtY9HN9yxd5Pq2Oq4q3x+bEODjG85s3pb9faGhtbHZ00DAGhgAcAMdjQ0rB7c0Kx6UNv7ccCzqjOucnxh7Wtn9q2m1blzhdsm9jWy9jW2TqhuVd3iKsd2bqqe1beaWW9raGh9c85AALDdaGABwDTuXD2sekjDPlbHzhtnMudXX2xoRn2pbzWortqw2j1XOEY5pG9vaF21wXWT6pYNd3ptB+c0PG74t9Wbq0/MGwcAtj4NLABYjVtWj6geWn1/dcy8cVbmyoa3un2sYR+hz13l+HKaU9vNwdXNqtuuHXdpuNvwtg0Nr626j9u5DXdmvaV6Y0NjFgBYIg0sAFiOXdX9Gu6yelh1r655s+7N6vKGja1Pu8rxmeqzeYMb++fI6nbV7RsaW/uOOzT8/2eruLL6QMOdWac2vOnw8lkTAcAWoIEFAIs7sXp0wx5WD254M9xmd0VDU+p/9+3Nqk9lEc5qHFTdsW81tE6q7tpw19ZW2Fz+ouqtDXtonZI3HALAQjSwAGD/HdjQrPrhhsbV7eeNs26nVx+s/qn6dMPG1B+v9swZCtYc3LB33J0b7tK659pxqzlDLcGnGhpZr6ve2dA0BgCuhwYWAFy3m1WPa2ha3b86dN44C7ms4ZGmqx6fTqOKzemI6k4Nd2vd+yrHIXOGWtClDRvB72tofWXeOACwcWlgAcB3umv18Iam1QPafBtPf7ph3533Ntxd9eHq4lkTwWodUd2t4Q6tk6v7tvnukLyiekf1+upNDY/xAgBrNLAAYNhA+hHVT1SPbHO9MfCshkXvuxrurPpQNlWHGppa92i4O+v+DY//Hj9ronHOrf6memXDmw09agjAtqaBBcB2dVDDXVY/UT2quvG8cfbLpQ17Vr2zbzWsPHIE+++mfauh9YCGt4VuhseCv1q9oaGZ9Td5oQIA25AGFgDbyc7q+6ofr36sOmHeONfrgoZm1Tsa3mD2kTwKCMt0RHX36oFrxwOqo2ZNdP2+XL2melXD+eHKeeMAAACwDAc0PDr0wuqc6psb+DinenX1tIa9fDbb3luw2e1suCvr6Q1NonOb/7xwXcdZ1QsaGm8uTAMAAGxC96p+v/pi8y8yr2vx+efVL1QnZQEKG82Ohrcd/mL1l9XZzX/euLbj9Oo/N+z7BQAAwAZ2p+q3q080/2Lymo5LqjdXz2i4w+qAlfwrAKtyQMMeWs+sTm3Yl27u88o1HR+r/kN1h9X8MwAAADDWHRuaVh9r/kXj1Y/dDYvcZzYsej0SCFvLzr69obW7+c87Vz9OazhHamYBAABM7IjqSdXfN2xgPPcC8arH6dUfV4+vjlnVPwCwIR1b/YvqRW28x5evrN5a/Ux12Kr+AQAAALa7ndWjq1dUlzX/YnDfse8uq6dVt13Z6IHN6LYN54ZTqz3Nf77ad1zacC59aPbeAwAAWIoTGvaM2kj7Wl1QvbLhLrDjVzd0YAu5SfXk6lXVhc1/Htt3fKz6tZzLAAAARjusekr1zjbGI4J7q/c37CNz72y+DqzPvs3gf7vh3LK3+c9zVzbcKfbEPGIIAABwnb67+v02zqvqP1T9Xw0bxQOsyokNzawPN/9575vVmdX/W91rhWMGAADYVG7U8AavTzb/om1PdUrDHQjHrnLQANfiFg13oJ7Sxtg36xMN5+ijVzloAACAjepO1XOq85t3cXZF9bfVL1U3W+mIAca5efXLDW8PvKJ5z5Vfrf5LdYeVjhgAAGADOLD68eotzbvnyxXV6xo2VL7xSkcMsBzHVj9fvbF59wbcW725+rGGczoAAMCWcdvquc17t9XlfevxQI/CAJvZ0Q3nslOa986ss6tnVbdZ7XABAABW6z7VyxqaR3MtsD5a/WZDEw1gq7l99R+q05rvPLuneml18orHCgAAsDS7qn9Zvaf5FlOfq363uuuKxwqwkdy94Y6oLzTf+ffd1b/I44UAAMAGdUz1G9WXmmfRdGbDY4r3rXaseKwAG9mO6v7V86qzmuecfEb17xreNAsAADC7+1avqHY3/QLp4uqF1QOqA1Y9UIBN6IDqodVLGs6ZU5+ndzfMEfdZ9UABAACu7oDqh6tTm+dtgqdVv1Ydv+qBAmwhJ1TPqD7e9OftvdWbqkfmLlkAAGDFdlU/2zybBV9Q/XGu4gMsw/2rF1UXNv35/KPVTzfMKQAAAEtzRPX06otNf8X+bQ2viz9s1YME2IaOaLgw8famv6P2C9Wv5PwOAACs080bNka/qGkXNWdUz6xuuvohArDmZtVvV2c37Tn/woa55mYrHyEAALCl3Llhw98pN2bf27Cn1k9UB61+iABci4MazsVT73O4u2HuudPqhwgAAGxm31X9WbWn6RYsl1R/Wn3PBOMDYJzvrf5HdWnTzQt7qhdXJ61+eAAAwGZyj+rVTXul/ZPV/1EdPcH4AFifG1W/Wn2q6eaJK6tXVHebYHwAAMAG9t3VXzdd4+rKtb/voXmNOsBmtKP6weq1Def0KeaOvdX/qu45wfgAAIAN5NHVO5vuKvq5DRsDnzDB2ACYxgkN5/bzmm4+eWf1kAnGBgAAzGjqxtVHqydWB08xOABmcUjDuf5/N20j69FTDA4AAJjGjoYi/x+aZlFxRcOeJQ+YYnAAbCgPqE5pukfTNbIAAGALOLn6u6ZZRFxa/Uk22wVg2K/qxdVlTTMHvblhX0cAAGATuVd1atMsGr5SPa06apKRAbCZHNO0+2Sdms3eAQBgw7tDw+N7Uzy68ansbwXA/jm84WLH6a1+frqyYS68/SQjAwAA9ttNqxdWe1r9wuD9DfuNHDDJyADYSnY13YbvexrmRm/ABQCAmd2welZ1catfCJySjdkBWI59Lxh5V6ufv77RMFfecJKRAQAA/2xX9W+rs1p94f+W6qHTDAuAbejhTfPCka9Uv9gwhwIAACt0QPWU6oxWW+Tvbdg/5K7TDAsAunvT7OP4xYbHGHdMMywAANheHlS9L40rALa2uzVNI+s9eTQeAACW5nYN+09pXAGwnUzVyDqluu1EYwIAgC3nmFb/ZkGNKwA2uikaWbur52ajdwAA2G87q39dndlqrzi/sbrPRGMCgPW6f3Vqq50bv1w9uWHPSQAA4Fr8YPXRVlucvz17fgCweT24+odWO1d+aO3vAQAAruIu1VtabTH+tup+E40HAFbtAQ0XZVY5d57SsBclAABsa0c17Lmxyn2uPlg9dKoBAcDEHtpwx9Sq5tE9DXP1kVMNCAAANood1ROrr7S6gvtT1U+s/V0AsJUd0DDnfbrVzatfbpi7zasAAGwLJ1fvbXUF9peqp1S7phoQAGwQuxrmwC+3unn27xvejAgAAFvSDas/qC5vNQX1xdXvVEdMNSAA2KCOqn63urTVzLm7q2fnsUIAALaQHdXPVme3miL6yurF1c2nGQ4AbBq3rP6i2ttq5uCvVE+YbDQAALAi964+0OoeY3hFdeJkowGAzenO1eta3Xz8zoY3CgMAwKZyRMMbi1b1uOCHqodMNhoA2BoeWn2k1czN+95WePhkowEAgHV4ZPW5VveowhMb3rYEAIx3QMNcelarmas/Wz18stEAAMBIxzTsRbWKfTb2bRZ7w6kGAwBb3I2q5zTcObXseXtv9aK1vwMAADaEfZu0n9dqruS+sbrjVIMBgG3mztWprWYOPzubvAMAsAHcqXprqyl6P1M9ZrqhAMC29tjq861mTn9LdfvphgIAAIODqme1mscOvl49rTpwstEAAFW7GubgC1r+/L6noXbYNdloAADY1u7dat5gdGXD24tuPN1QAIBrcEL1klazr+WHqntONxQAALabgxuunF7e8ovZf2hojAEAG8f3VP/Y6u7GOmi6oQAAsB3cpXpvq3lc8JfzuCAAbFQHVk+vLmz5dcC7GzaRBwCAdTmw+o3qspZftL6yuul0QwEA1uHm1Wtafj1wafXMaud0QwEAYCu5a/X+ll+ofr76oQnHAQAsz49UX2z59cF7Gu74BgCA/bKz+vfV7pZbmF5ePbs6fLqhAAArcET1B9UVLbdW2J27sQAA2A93qz7c8q+qnlrdfsJxAACrd8fqb1t+3fDe6k4TjgMAgE3igIYrnpe23AL0nOqJ1Y7phgIATGhHw1x/XsutIS5pqE0OmG4oAABsZMdXr235V09fnU3aAWC7uHn11y2/nnhNdeyE4wAAYAP6kerslltonl09fspBAAAbxk9V57bc2uKs6oenHAQAABvDkdWLWv5V0r+ojplwHADAxnNc9fKWX2e8sGEDeQAAtoEHVp9tuQXll6vHTDkIAGDD+7HqzJZbc3y6ut+UgwAAYFoHVc+t9ra8IvLK6lnVYROOAwDYPI5qqD+ubHn1x96133nQhOMAAGACd6je33KvgH6iuv+UgwAANq0HVJ9subXIe6vbTTkIAABW57HV11ruVc//r2EfLQCA/XVU9d9a7t3g52UbAwCATe2I6iUt90rnp6v7TjkIAGDLuV/L34/zJdXhUw4CAID1u0v10ZZbGL6sutGUgwAAtqxjqle13FrlQ9WJUw4CAIDFHFD9drWn5RWD5zY8hggAsGyPa3gMcFl1y6XV06odUw4CAID9d3T16pZ7JfMt1S2mHAQAsO3cqnpby61hXl7dYMIxAACwH+5XndHyir6LqidOOgIAYDvbUT2l+kbLq2e+WN1nykEAAHDtnlld3vKKvbdXt5l0BAAAgxOr97W8uuayhkcKAQCYyaHVn7a8Au/yhv2zDppwDAAAV3dw9f9UV7S8OueF1SFTDgIAgPqu6hMtr6j7ZHWvSUcAAHDdvrv6dMurdz5enTTpCAAAtrHHVOe3vGLuFdUNJx0BAMD+uVH1v1pe3fPV6lGTjgAAYJs5qOH292UVcOdXPzHpCAAAFvPEhpfMLKMG2ls9t9o16QgAALaBE6q/a3nNq4/kFnoAYHO5a3Vay6uH3lwdP+kIAAC2sIdU57WcQu3Kho3aD5xyAAAAS3Jw9ayGmmYZtdE51fdPOgIAgC3omQ1vB1xGgfaV6qHTxgcAWIkfrM5sOTXS5Q01FwAAIx1UvaDl3SL/vurWUw4AAGDFblt9sOXVS3+YfbEAAPbbrVpeMba34TZ7jwwCAFvRgQ21zt6WUzt9oLrlpCMAANiETq6+1HIKsIuqfzltfACAWTyxurjl1FBfrO49bXwAgM1jmftdvafhTi4AgO3ijtWHW04ttbt6yrTxAQA2tl3VH7W8/Rv+vDp80hEAAGwMR1Yvb3l11XOyFQMAQEdWr2s5BdZl1VOnjQ8AsCH9csNdVMuosV5bHTFtfACAjePW1UdaTmH1uezVAABwVSdXp7ecWutD2dwdANiG7led3XIKqrdWx0wbHwBgUzi+ekfLqbnObGiKAQBsC7/UcjZr39vw2uid08YHANhUdjbUTMtoYu2ufnbS9AAAE9tR/aeGxtN6i6fLqidPGx8AYFP7hZazL9be6rcaajsAgC3lBtUbW86Vv89X95g2PgDAlnDPlrcv1uuro6aNDwCwOrdueZu1/132uwIAWI9jq7e1nNrsw9ncHQDYAu5SfanlFEj/ozpk2vgAAFvSodWft5wa7fTqTtPGBwBYnkdUF7X+omh39ZSJswMAbAdPaTn7Yl1YPXzi7AAA6/bj1aWtvxg6p3rQxNkBALaTH6jOa/112yXVYyfODgCwsN9uOW8afH9102mjAwBsSzerPtj667e9DbUgAMCGdUD1vJazl8JfVYdPGx8AYFs7ojql5dRyL6oOnDY+AMD1O6jlbQT6ghQ8AABz2NXQfFpGTffy6uBp4wMAXLtjqne3/iJnT/XzE2cHAOA7PaW6vPXXd++pjps4OwDAd7hldVrrL27Orx46cXYAAK7dw6qvt/4677PVnSbODgDwz06qTm/9Rc0Xq7tPnB0AgOt37+rLrb/eOyNNLABgBt9dndv6i5l3VydMnB0AgP1384a3Q6+37ju7uufE2QGAbewR1cWtv4j5y4bN3wEA2NgOrl7W+uu/bzQ8mggAsFKPr3a3/uLlWdWOibMDALC4HdWzW38duLt63MTZAYBt5Amt/200e6vfmDo4AABL81utv4m1p/rJqYMDAFvfrzc0n9ZTqFxaPXbq4AAALN3jGmq79V7Y/NWpgwMAW9ezWv9VtvOrB0+cGwCA1fmB6ustZ2sJAICFHVC9oPUXJadXd5k4OwAAq/dd1Rmtv158fkPtCQAwys7qxa2/GPlkdZtpowMAMKHbV59u/XXji9LEAgBGOLB6aesvQj5UHT9xdgAApndC9ZHWXz++pOFCKgDAdTqkekPrLz7eVB0+cXYAAOZzRHVq668jX1cdPHF2AGATObR6Y+svOl5RHTRxdgAA5ndw9arWX0++oeHCKgDAtzm4OqX1Fxt/Xu2aODsAABvHQdXLWn9d+Ve5KAoAXMWR1dtbf5Hxn6sdE2cHAGDj2VE9u/XXl29reDQRANjmjqze0foKi73V06YODgDAhvfM1t/EentDzQoAbFNHVe9qfQXF5dUTpw4OAMCm8dTqytZXc76zoXYFALaZoxoKgfUUEldUT5g6OAAAm87Ptv4m1jtyJxYAbCtHVx9sfQXEZdUPTx0cAIBN63HVntZXg/5j7sQCgG3hyOofWl/hcGn1qKmDAwCw6f1Qw4XQ9dSi78rG7gCwpR3R+h8bvKR6xNTBAQDYMh7ZcEF0vY8THj51cABg9Q6qXpfHBgEAmN9jWv+dWK9tqHEBgC3ikOpNra9AuKh60NTBAQDYsh7UUGOup0b9m+rgqYMDAMt3cPWG1lcYXFg9YOrgAABseQ9sqDXXU6u+pto1dXAAYHkOrF7d+gqCC6r7TR0cAIBt4/4NNed6atZXNdS+AMAms7N6cetvXj1w4twAAGw/D2r9TawXVQdMHRwAWNwB1Z+1vgLgq9Xdpw4OAMC2dY+GGnQ9Nez/rHZMHRwAWMzzWt/E/7XqnpOnBgBguzu59d+J9Z8nTw0AjPabrW/Cv7C6z+SpAQBgcL/W/3bCZ0yeGgDYb0+u9rb4RH9p9YOTpwYAgG/3iOqyFq9r91Y/PXlqAOB6/WR1ZYtP8pdUD5k8NQAAXLMfbLjAumh9e2X1+MlTAwDX6lHVntx5BQDA1vLw1ncn1u6Gu7kAgJk9sOHuqUUn9csyqQMAsHH9aOu7WHtx9YDJUwMA/+yk6rwWn8yvqH5q8tQAADDOz7S+7TLOqe40eWoAoNtUX259G1v+zOSpAQBgMT/X+l5YdEZ1q8lTA8A2dnz12RafvL9ZPXXy1AAAsD7/pvXVwJ+pjps8NQBsQ4dX72t9E/dvTp4aAACW47dbXy383oaaGgBYkQOr17W+CfvZk6cGAIDl+q+tryY+pdo5eWoA2Cae0/om6r+sDpg8NQAALNfO6pWtrzb+/clTA8A28Butb4J+Za4yAQCwdeysXt36auRnTJ4aALawn219b1x5U3XQ1KEBAGDFDq3+vsXr5L3VT0+eGgC2oIdVe1p8Un5fdeTkqQEAYBpHVR9o8Xp5T/XQyVMDwBZyl+prLT4Zf7I6fvLUAAAwrROqz7Z43XxedeLkqQFgC7hVdVaLT8JfrG42eWoAAJjHbaozW7x+/kp1i8lTA8AmdoPqtBaffM9vuHsLAAC2k3tVF7Z4Hf3B6ojJUwPAJnRg9cYWn3Qvqx48dWgAANggfqDa3eL19Ovz9m4AuF7PavHJdm/DGwsBAGA7e0qL19TfrP7j9JEBYPP4N61vov216SMDAMCG9Jutr7b+hekjA8DG90PVFS0+wf7B9JEBAGBD+8MWr6/3VA+ZPjIAbFx3aHh176KT61/lOX0AALi6A6s3tHidfU5128lTA8AGdHT1iRafVN9THTZ5agAA2ByOqD7Q4vX2aQ1vCQeAbevA6m9bfDL9UnXTyVMDAMDmcovqKy1ed78pTzwAsI09v8Un0a9XJ00fGQAANqV7VBe1eP39nOkjA8D8/nWLT56XVw+fPjIAAGxqj2p9L0568vSRAWA+D2x4q8miE+evTB8ZAAC2hF9r8Tr80up7p48MANM7rjq9xSfNP5k+MgAAbBk7qpe0eD3+uerGk6cGgAkdXL27xSfL12XzSAAAWK9d1VtavC5/V3XQ5KkBYCIvbvFJ8iPVUZMnBgCAreno6hMtXp//0fSRAWD1ntTik+NXqztOHxkAALa0O1fnt3id/q+mjwwAq3NydVmLTYq7qwdPnhgAALaHhza85XuRWv2S6l7TRwaA5Tuh+lKLX9X5xekjAwDAtvIrLV6vf6HhRU0AsGkdWn24xSfD500fGQAAtqUXtnjd/p5s6g7AJvbfWnwSfGt14PSRAQBgW9pV/X2L1+/PnT4yAKzfE1t88vtcdePpIwMAwLZ2fHVGi9fxNnUHYFO5Y3VBi016l1X3mT4yAABQPbDa02K1/PnVbaePDADjHVV9MldtAABgs1rP0xQfrQ6bPjIAjPOyFp/s/mCGvAAAwHd6fovX9X86Q14A2G9PbvFJ7u0NG0cCAADzO7h6d4vX90+YPjIAXL+7VZe02OR2RsOGkQAAwMZx0+orLVbjf6M6afrIAHDtblx9ocUmtkuqu0+eGAAA2B8nV7tbrNb/dHWD6SMDwHfaUb2mxW8t/pXpIwMAACP8eovX+y+fIS8AfIdfbfHJ7MXTxwUAABbwZy1e9//yDHkB4J+dXO1psUnsn6pDp48MAAAs4IjqtBar/S+r7jl9ZACow6uPtfiGjt81fWQAAGAd7tHiL276SC5gAzCDl7T4LcSPnyEvAACwfj/Z4uuAF82QF4Bt7KdbfNJ6zgx5AQCA5XlBi68HfmqGvABsQ7epvt5ik9X7qoOnjwwAACzRoQ172i6yJvhqdYvpIwOwneyq3t1iE9XXqltPnhgAAFiF27X4he23VzunjwzAdvH7LTZB7a0eOUNeAABgdX6sxR8l/N0Z8gKwDXx/dWWLTU4vmCEvAACwen/SYmuEK6oHzJAXgC3sRtWXW2xi+mD2vQIAgK3qkOpDLbZWOKM6evrIAGxVL22xCenC6vYz5AUAAKZzUnVxi60ZXjx9XAC2op9s8efanzRDXgAAYHq/0OLrhp+YIS8AW8jx1TktNgm9aoa8AADAPHZUr22xtcOZ1THTRwZgK9hRvXE4SmEAACAASURBVLnFJqBPVkdMHxkAAJjRDavPt9ga4m8a1iAAMMq/abGJZ3f13TPkBQAA5ve91Z4WW0v8/Ax5AdjEbtOwAfsik87vzJAXAADYOJ7VYmuJr1e3nCEvAJvQrur9LTbh/GN14PSRAQCADeTA6r0ttqZ4Z7Vz+sgAbDb/Z4tNNBdVt5shLwAAsPHcubqkxdYWz5ghLwCbyD2ry1psknn6DHkBAICN69dbbG1xaXW3GfICsAkcUn28xSaY1+eNIQAAwLfbUb2hxdYYH64Omj4yABvdf2yxieW86qYz5AUAADa+m1VfbbG1xm/NkBeADey7qt0tNqn8qxnyAgAAm8cTW2ytcVnDXloA0K7qQy02obxkhrwAAMDm85cttub4YMOaBYBt7j+02ETyheoG08cFAAA2oRtWp7fY2uPfzZAXgA3kxIY3fIydQPZWD5shLwAAsHk9smEtMXb9cXF1+xnyArAB7Gq4HXeRKyB/MENeAABg83tei61B3l3tnCEvADN7RotNHJ+uDpshLwAAsPkdXn2mxdYiT58hLwAzul3DbbiLPDr4gzPkBQAAto5HtlgD66LqVjPkBWAmb26xCeNFc4QFAAC2nBe32Jrk9TNkBWAGT2qxieKzDbf7AgAArNdR1RdbbG3yr2bIC8CEjqu+2mKPDv7ADHkBAICt61Et1sA6tzpmhrwATOS/t9gE8ZI5wgIAAFvey1psjfL8OcICsHoPabGJ4YzqBjPkBQAAtr4bVWe22FMi3z9DXgBW6JDqUy3WwPqhGfICAADbx6NbbK3yiergGfICsCL/Z4tNCC+fIywAALDtvKbF1izPmCMsAMt3UrW78RPBOdWNZ8gLAABsP8dXX2v8uuWy6k4z5AVgiXZUb2+xKxlPniEvAACwfT21xdYub21Y+wCwST2hxSaAd1UHzJAXAADYvnZW722xNczjZ8gLwBIc1WJv89hTfdcMeQEAAO5ZXd74dcyXqiNmyAvAOj23xa5c/N9zhAUAAFjzey22lnn2HGEBWNzdqisaf8L/eF5DCwAAzOvQ6jMt9jTJiTPkBWBBb26xKxYPnyMsAADA1Ty6xdY0r5sjLADjPb7FTvT/c46wAAAA1+KlLba2+dE5wgKw/w6vzmj8Cf6c6sYz5AUAALg2x1dfa/z65vTqsBnyArCffqvFrlA8fY6wAAAA1+MZLbbG+fdzhAXg+t2x2t34E/uHqp0z5AUAALg+B1Yfafw655Lq1tPHBeD6vLbxJ/W91f3nCAsAALCffqDF7sJ61RxhAbh2j2qxE/qfzxEWAABgpFe02JrHm9YBNoid1UcbfyL/RnWLGfICAACMdZuGxwLHrntOa3gMEYCZ/dsWuxLx63OEBQAAWNBvttja55fnCAvAt9yo+mrjT+Afq3bNkBcAAGBRB1WfbPz652sNaycAZvJ7LXYF4lFzhAUAAFinH22xNdDvzREWgLpDtbvxJ+5XzxEWAABgSU5p/Dpod3X7OcICbHcvbfxJ+9LqdnOEBQAAWJI7tdjF/L+YIyzAdnafam/jT9i/O0dYAACAJXt249dDe6vvnSMswHZ0QPXBxp+sv1IdMUNeAACAZTuyOrPx66J/rHbMkBdg23lCi21a+HNzhAUAAFiRp7bY2ugn5wgLsJ0cVn2p8SfoDzTcuQUAALBV7Kw+2vj10eerQ2bIC7Bt/GqLXWF41BxhAQAAVuwxLbZGevocYQG2gxtV5zf+xPyGOcICAABM5E2NXyd9rTp6jrAAW93vNv6kfHl15znCAgAATORu1RWNXy/9xznCAmxlx1UXNv6E/CdzhAUAAJjYixu/XrqgOmaGrABb1vNb7GR83BxhAQAAJnZcwxpo7LrpuXOEBdiKblVd1vgT8W/NERYAAGAmv9P4ddOl1c3nCAuw1fxp40/CX6kOnyMsAADATI6szm78+umP5wgLsJXco7qy8Sfgp8wRFgAAYGa/1Pj10xXVSXOEBdgqXtv4k+/Hq51zhAUAAJjZruozjV9HvXqOsABbwf0af9L9ZvWTc4QFAADYIH66xdZS95kjLMBmd2rjT7gfqQ6YIywAAMAGsbPhyZSx66k3zBEWYDP7/ha7YvDIOcICAABsMD/SYmuqB84RFmCzemvjT7R/N0tSAACAjekfGr+uevMsSQE2oUX3vvq+OcICAABsUA9rsbXV98wRFmCz+dvGn2BPmSUpAADAxvbmxq+v3jhLUoBN5D6NP7nure41R1gAAIANbtE11r3nCAuwWbyh8SfXV82SFAAAYHN4bePXWX81S1KATeABjT+pXlmdNEdYAACATeIeDXdV2QsLYAne2PgT6itnSQoAALC5/HXj11uvnSUpwAZ2covdfXWXOcICAABsMvdssbuwvnuOsAAb1esafyL9X7MkBQAA2JxOafy66zWzJAXYgO6WKwEAAACrdt/sOwywsJc1/iTqjRgAAADjLfLm9z+bJSnABnKb6vLGn0BPniMsAADAJrfI29/3VLeYIyzARvHfGn/yPGWWpAAAAFvD3zR+Hfa8WZICbADHVZc0/sR53znCAgAAbBEPavw67BvVjecICzC3/9T4k+apsyQFAADYWt7W+PXYb80RFGBON6wuaPwJ8/vmCAsAALDFPLTx67GvVUfOERZgLv++8SfLd82SFAAAYGt6X+PXZb86S1KAGRxand34E+WPzBEWAABgi3pc49dlX6oOmiMswNR+sfEnyY9WO+YICwAAsEUdUH2y8euzn5sjLMCUDqg+lRMkAADARvDUxq/PTssNBsAW96O5RRUAAGCjOKQ6q/HrtEfOERZgKu9o/InxabMkBQAA2B5+vfHrtLfMkhRgAvdo/Enxq3lNKwAAwCrdoLqgcWu1vdVJc4QFWLWXNL6B9VuzJAUAANhe/lPj12svmiUpwAodV13auJPhxdWxc4QFAADYZk5osTXbjecIy/ZzwNwB2DZ+qWFzwDFeXJ27/CgAAABczZkNT82McVj1iyvIAjCLQ6pzGtfJv7K6wxxhAQAAtqmTGva2GrN2+0reGg9sEU9q/LPUb5glKQAAwPb25sav354wS1KAJdpRfbTxJ8CHzxEWAABgm/uhxq/fPjBLUoAlenDjT34fa2h8AQAAMK0d1ccbv457wBxhAZbllY0/8f3SLEkBAACoelrj13EvnSUpwBLcqrqicSe98xreZAEAAMA8Dqu+2ri13OXVzeYIy/ZwwNwB2NJ+rto58mdeVF2ygiwAAADsn0uqPx35MwdWP7+CLAArdWB1RuM69ldUt54hKwAAAN/uto1/oub0xt/EADCrxzX+memXz5IUAACAa7LInsY/NktSgAW9qfEnuu+bJSkAAADX5Psbv657/SxJARZwp2pv405yH5wlKQAAANflI41b2+2t7jhLUrY0m7izCk+tdoz8mT9eRRAAAADW5YUjv39H9a9XEQRgmQ6rzm9ch/6C6og5wgIAAHCdjqwubNwa77zqkDnCsnW5A4tl+xfVDUf+zF9U31hBFgAAANbnouqlI3/mxg0v9gLYsN7b+E3+7jZLUgAAAPbH3Ru/znvXLEkB9sM9Gn9Se/csSQEAABjjfY1f791llqRsSR4hZJl+YYGf+aOlpwAAAGDZnr/Azzxl6SkA1ung6quN39jv0DnCAgAAMMrhjX9h19nVrjnCsvW4A4tleWx1o5E/8yfVpSvIAgAAwHJdXP2PkT9zXPWYFWQBWNgbG9eJ31vdYZakAAAALOLODWu5MWu/v54lKcA1uFl1ReNOYn87S1IAAADW4x2NW/vtqY6fJSlbikcIWYYnVTtH/syLVhEEAACAlRq7lttV/cwqggCMsaP6XOM68F+rDpkjLAAAAOtyeHVh49aAn2xYOwLM5vsad+L6ZvWCWZICAACwDH/S+HXgfWdJCrDmxY0/cX3vHEEBAABYigc0fh34x7MkBaiOrL7RuJPWh2dJCgAAwDJ9vHFrwQuqw2ZJypZgE3fW47ENzz+P8ZerCAIAAMCkxq7tjqp+ZBVBAK7PWxv/+tTjZkkKAADAMt2suqJxa8I3zZIU2NZu2viT1etmSQoAAMAqvLlxa8LLq2NnScqm5xFCFvVT1c6RP/OiVQQBAABgFmPXeAdW/3IVQQCuzfsa12k/tzpolqQAAACswqHV+Y1bG75rlqTAtnTHxr8y9Y9mSQoAAMAq/XHj1oZ7q9vMkpRNzSOELOKnF/iZP196CgAAAOY2dq23o3rCKoIAXNWO6rON67B/apakAAAArNqO6vONWyN+fJakbGruwGKsk6vbjvyZl60iCAAAALP7ZvWKkT9zYnXPFWQB+Gd/2Pj9r06cJSkAAABTuHvj14nPniUpsC0cWJ3TuJPSB2dJCgAAwJQ+2ri14pernbMkZVPyCCFjPKQ6duTP/OUqggAAALChjN065qbVA1cRBOC/N/71qLecJSkAAABTun3DGnDMmvH5syQFtrQDq/MadzJ66yxJAQAAmMO7GrdmPCuPEbKfPELI/npgdeORP/PyVQQBAABgQxr7NsLjq/uuIgiwfT2vcZ30PY1veAEAALB53aS6onFrxz+YJSmwJe1suLVzzEnodbMkBQAAYE6nNm7t+KVqxyxJ2VQ8Qsj+uG/DrZ1jvHoVQQAAANjQxq4Fb1advIogwPbzXxvXQb88jw8CAABsR8c3/jHCZ8+SFNhSdlRfaNzJ59Q5ggIAALAh/H3j1pCfz2OEXA+PEHJ97l3dauTPeHwQAABg+xq7Jrx1dc8V5GALOXDuAGx4jx35/VdWr1lFEAC2lJ3VUdVB1eHVodUh1aeqi1b49/7X6ocaVwPty7gqFzbMn/vjGa32QtGJ1c3XPt+X6+trHy9o2CbgGyv8+wHYGl5dPadxd1X9ePXB1cRhK9DA4vo8buT3/0N19iqCADCpQ6oj146jr/L5kdUR1cHVYWvHwQ3NqJ1r37uvOXX17zmyofY4+jr+3kdUb1r6aL7lVtUdV/j7F3Fd/x5Xt8pGWtXTq1/Yj+/bXV2yduxuaGpd3tDkumrT68JqT3VxdVl16drnexoald9Y+3hRdf5VPr9sWQMCYBZfrt5T3WfEzzyu+s3VxGEr0MDiupxY3WHkz7j7CmBeR1bHNDSZ9jWcjqpu2Lc3oK7+tas2q46odk0dfM1hK/79e1b8+1ftmyv+/Qft5/cdvHaMab6NcUXf2dTa1/C6+tcuamiYXVR9vDp9RZkAGOevGtfAuuPa8anVxGGz08DiuvzoyO//ZvWKVQQBYL+9tnrw3CHWQQPruu1d8e/f3wbWqu27U29sg+yXqz9afhwAFvDy6vca9xjho6v/spo4bHYaWFyXR478/g803CoKwLe7UXVcdWz10Ya7RVbl/BX+7ikcuuLff/mKf/+qrbqBNdedd8ty4Yp//6Or+1dfaqh5zqvOrc6pvrbivxtgs/lC9ZHq7iN+5pFpYHEtNLC4Njeq7jfyZ7x9ENgujqiO71tNqWOqE9Y+Hrv29eOv8p+v2hT44er1K8y22RfR7sC6btvlDqxFrfIFAFU/Vj3pWv7s8oZm1nnVWWuf7zvOusqfndOwX6jN8IHt4NWNa2A9sGGbg1VfkGAT0sDi2jyi8f/7+OtVBAGYyOENb1+7yVU+XlNT6tiGDc4Xddz6Yl6vzXQH1lXfbrdvo+8LVvx3/l71h41rZO3Ltir7NsDfH6t+UcppDQ3aHQ17pF39bZGHtPq75NZj1QueG13Hn+2qbrp23G0/ftelXXOz68yG/57PWPv4pVb7vz+AVfrr6ndGfP9B1cOqV60mDpuZBhbX5jEjv/9TDRunAmw0h/StReVNG5pSN7vKx30NqyMnynPsin//su7A+v/Zu/N4Sary8P+f2WeAGRjWAVmHfUC2QREdgsiiEI1GIWrE3ahxQ42JGjf0lyiaXyREoxHjEuIWBI1B3ABxwQ3ZYVgFZJ2BAQYYmGHW+/3j6c7tudylT3dVne7qz/v1Oq97596q7qf6TlXXefqc5zRXkGsWx26uFtf82brG9yNXo1vR+F3rNs0E0CpidbnmNjnclel5x9NLSccPtrndpkQno5l8aya7NifuL2fz5FUom4sDbN6yzxw2XlxgC9ISeiOVPQJrvARWqlnATo02kRVEImsJMXVxCXDviLYEV2+U1HuuAW4Fdk/Y588wgaVRmMDSaKYRI7BSfL+MQCRpHFOJ5NPOxMio5qip1uTU9hTb4SxC2SOwlhKd2UeJTu8jLd+vaPnZI2y8stvIn60sOU71t8cbrazk2yY8OanVulrm5mP8rOwRamWtujiR2cC+jTaeBxlOci0lkl6tXxdTfpJPkkb6AbHIRrv+lPggY3054Uiqk6OIFQVT2lFZIpU0iD5EdM7WkX6t6oV2VvEviaSK3EP+a0g37cXFvySSNKHnkn69elaWSNXTHIGl0Tw/cfuHgV+WEYgkjWIKMRWwX6xn4/o21+cNR1IXPkRcf5qLN8xrfN9snU59rMqduQOQNJB+Roz+TCnX8KfAr0qJRn3LBJZGk5rA+jH5aplIGjy9UMPoAZ68wljzZ/cRq4y1biOpHr48we+biaytefJKpSOTXVuXF+aYyk5gzSemlfZSXTdJ+a0GLiRWcm3XC4C/Lycc9SsTWBppr0ZLUeZy8JJ613RgF2APojBns11IrPJWlrI6YI8RybGlDBdJvoeNk1LLiMSUSXtJo0lJWk/lycmubdl4cYnm180KiG1lQmyd+h6wP5HAuhW4rfG19fu7gQ0lxyGp95xPWgJrf2A34PZywlE/MoGlkU5I3H4D8KMyApGU3STixmH+GG2sYsarKDeBdUfCthuI5FNzha7Rvt6GowUkVW8dcR1aAlw7wbbTiUTX9gyvpjra13nEtXs0dxJ1ZcoyieFVxuYChzbaaJYT196xmqT6+SFxDRrrGjWa5wGfLycc9SMTWBrp+MTtf4fTY6R+N43odOxLjMDcu9HmE52hVPOLC21UdzN8A/Qg8EciqdVcYn7k0vIPlxyPJJVtDcPXtMvH2W4ukchqJrWaq7Hu2Ni3TPOAWW1uOxdY2GgjLSGSWDc12s3ADY2fre0+TEmZ3AtcCRySsM/xmMBSCxNYajUTOCJxn++XEYikUmwF7NNozSTVPkTCqcj3g7ITWCuJYeV34XLwktSqWX9qcYbn3n3iTdqyfaONXIFsLZHEupHh5NaNjfZQQc8tqVzfJy2B9Wzig1aT1wLShu+p/p5L+nTApwLXlRCLpM5sRiSm9gMWEMmk/YiOxYwK49gKOxSSNEheA3wl03OvJuprLSaSXNc3vr8ReDxTTJKebCFwWeI+RxGrGEqOwNJGjk7c/h5MXkm5zCKm/O1HjEbas/Hv3YlPqnLbDRNYkjRI1hFT/eZT7QcmNJ5vQaO1WgP8gUhk3ULcty4mElyrqwxQEhBTCJcRC1i062hMYKnBEVhqdTVwQML2XwZeX1IsksJ0YkTVAmLEY/PrbsCUjHE13Ut0Dm4d0a4jirlLkgbLJKL21u5EMmvk163zhfZ/1hHvVdcSCa3riPvgW3IGJQ2IrwGvSNj+MuBpJcWiPmMCS03bEyOqUv5PvBz4VjnhSANtOvHmvh8xsirniKp1RIH01uRUa8LKJJUkKcXmPDmx1fx+J/LNELkIOCbTc0uD5NXAVxO230AsEuHCYXIKof7PMaQlrzYAF5QUizTo1hDFa3eo8DmXMVwM9+aW7/9IJLEkSSrCI8Q0oitH+d00YFeGFxzZq+X7skduWRZDqsYFDK8m3Y7JRB2ss0uLSH3DBJaajk3c/kpi+XpJ5biG4hNYjxFTJJpFbpuFbm8hkmaSJOW0lnhPugU4b8TvphOjklsXKFlATLPfrIDnvraAx5A0sXuJe9H9E/Y5FhNYwgSWwiTSE1iOvpLKdR3wvA7220CMmmquwNS6GtPyooKTJKlia4j3ssWj/G4uT159dwFRL7LdUR6OwJKq8xPSElid3BOrhkxgCeLiMS9xHxNYGmSziBvilSU+x/UT/H4DcDvxifF1xMpPdxLT/h4oMS5JknrNcuCSRmu1DTH9cGeGF0E5ANhlxHZDTPy+2603E/fcVxEzGa7DlRA1uC4A3p2w/Y7EaMubyglH/cIElgCOS9z+cZ58gyDV1RzgUOAQ4EDgYOIN9K3AmSU+b+snwcuIRFUzWXUN8Qn04yU+vyRJ/W4Zoxd+3pxIZDUTWtsAK0qO5UTg6JZ/ryM+fLqKmN5/BXA58GjJcUi94BdEAndGwj7HYQJLElFjYCih/ThPmFLppgELgb8GvkIkidYz+nnw+ZJjmUksrpA6OlKSJPWWSUTt2InusdcTH1R9mRixdQgOOFB9XUxaH/TcPGFK6iVTgIdJu3ikDPeUetUUIll1CnAWkaxaR/vnwaXVhyxJkvrQbqTda7e2tcQ9ylnEPctCYlU2qd+9j7RzYRnt17STVFMHkv5GekCWSKXubAUcD3wEOJ94E+z0ZnKIqH/lp6KSJGkif0539xwj2/3A94EPE8Wtt6zuUKTCPI30//v7ZolUUs94B2kXjaWY+VZ/2Ad4O/B1YjnuIm8cmy1l9RRJkjSYPkY59yGt7Wbga8DbiFqdUq+bTHtTa1vbm7NEKqlnfIe0i8a38oQpjWsa8Axieuv/EJ9Mln2jeCdwVBUHJ0mS+toOwIuBfwR+CNxH+fcp9xH3+e8Cno6jxtWb7IsqiSNpBttkYhpVyrDjtwKfKyccqW2zgcOBRY12GLBJic93O/A7YontK4HfEzeGkiRJndiJ4RWOFxD3MruW+HyPE/cyvwR+BfwGeKzE55Pa8U7g9ITtlwLblxSL+oAJrMG2P3Bt4j5PJVZHkaq0PcPJqkXEzd6Ukp7rIaJAe2sbbQluSZKkIm1LjJZqbXNLeq51wNXAJQwntZaW9FzSWA4BLk/cZ29iyqykAfNW0oZsuvKDqjCJqF/1euCrwB8ob3j9E8QnkGcArwD2LP/wJEmS2jIJ2As4GfhX4LfAasq7L7oZ+ArwOiJJ4H2/yjYFWE7a/9O/yhKppOz+m7SLxXfzhKkBsBdRlPFsul8dcKy2AbgB+E8iefs0YHoVBydJklSQ6cR0w7cDZwE3Efc4Zdw73Qd8A3hWJUemQXU+af8v/ytPmJJymgQsIe1i8a4skarO3kUUQy/jpmsF8BNiieljgS0qOiZJkqQqzQWeC3wEuJCobVXkPdVJ1R2KBtB7Sfv/eFeeMCXltDfpb14Ls0SqOnsPxd1cLQHOAU4BDsXVdiRJ0mCaSow0fxdwLlHbqtP7q/XA1tWGrwFzOOn/L3fLEqmkbP6KtIvEcsormq3BdQid31DdCHwJeA3WrpIkSRrPXsBrgS8T0w7bvd+6MkewGijTSB81+OoskUrK5qukXSR+lCVK1d0k4H4m/v+3ErgAOBU4BtgsQ6ySJEl1MZu4pzqVuMdayej3YJ/KFJ8Gy09J65t+MU+YknK5kbSLxN/nCVMD4Bye/P9tFXARUcvhaGDTbNFJkiTV32YMJ7QuZni1wxMyxqTBcSppfdNrs0QpKYstSV+tZFGWSDUI3gKsI5aG/jhx8zQra0SSJEmDbVPgeMr/EHEqMSJfg+05pPVN1wNzskQqqXInkHaBWEnMTdbg2Ybyi6HPBjYv+TkkSZLUe14N3EPUNT0RV40eVDMZHvXXbjs2S6SSKvdR0i4Ol+QJUxlMI0ZAnQHcSvz9j84akSRJkurq2zy577EYOI24J/VD9MFxKWl91A/lCVNS1X5E2sXhn/OEqYpsSnzidRajL7P8yXyhSZIkqaamAg8xfj9kCXGP+hKsiVp3nyGtj/r9PGFKqtJkYDlpF4e/yBKpyrQjcAoxum4d4//9r8sUoyRJkurrSNL6JOuIe9dTiHtZ1cvJpP1/eADrp0m1tw9pF4YhYOcskapoC4kVPhaT/n9gl+rDlSRJUo2dRvo96ciphqcCCyqOW+XYg/T/A3tkiVRSZV5D2kXhnixRqigHAh8BrqC7G4TXVx24JEmSau3fgCfo7h612S4naiI9tdIjUJEmActI+7ufnCVSSZX5PGkXhe/mCVMdmgIcQdQtaxZh77bdA7ylyoOQJEnSQNgUeAHwOeA2irl3/QPwT8CziPIp6h/nk/a3/kyeMCVVJXUkzvvyhKkEU4HnAV8G7qP7N/1VwE+A9+CnWJIkSarO3sA7gR8T96Td3tcuBb4EHEd80Kve9mHS/r6/zxOmpCrMAtaQdlF4TpZINZFJxKdKn6WYpNUjwLeAlwJzKjwOSZIkaTRzgJcR96iPUkwy61+BZ2Lx7171PNL+pquBmVkilVS6w0m7IKwDZmeJVKOZBCwCvkCsutHtm/jNRPHMRfiJlCRJknrXFOKe9TTiHrbb++AHiHvqRZjM6iVbAhtI+1seliVSSaV7C2kXg2vyhKkR9gA+SGerB45stwCfIj55siaAJEmS+s1kIvH0T0S9q27vj68DPgDMr/IgNKabSPv7vSlPmJLKdiZpF4P/yBOmiKTVqXSftFoLXACcAuxaYfySJElSFXYj7nUvIO59u7l3Xkzcg+9R5QFoI/9J2t/s3/OEKalsl5N2MfjrPGEOrC2BNwM/BdbT+RvvusZjvAPYudIjkCRJkvLZhUhmXUzcE3dzP30h8EZgi0qPQG8n7W9lIXephqYTRe5SLgbPyBLpYJlMrIryTbpbaWUD8BviDXuHSo9AkiRJ6j1PAd4F/JbuRmWtBM4CjsR6WVVYRNrf5wlgWpZIJZXmQNI/ddgkS6SDYTfgo8AddPeGehXwPpweKEmSJI1lPvB+4Gq6u/e+mbj33r7a8AfKbNJno+yfJVJJpXkNaReB67NEWW+zgFcAF9HdFMEbibn5+1QavSRJktT/FgAfo7vVDN9WedSD5RbS/h6vzBOmpLKcQdpF4Ot5wqy1j9P5m+QfgU8CB1cdtCRJklRTC4nVDFNmRawiateqPGeT1lf6dJ4wJZXlF6RdBN6TOGLQngAAIABJREFUJ8xa25OoVdXu3+AWYqTVfhlilSRJkgbJfsS99x8Y/x79a5niGyTvJ63venGeMCWVYTLwCGkXgaOzRFp/v2b81/1R4EtEkcgpmWKUJEmSBtUU4Cjgq8DjPPl+/bhskQ2O55HWd12OBfal2tiD9ClrW2WJtP5ey5Nf63XAecBJwIx8oUmSJElqMZO4R7+AmElxKyZKqrAt6f3XXXMEKql4J5J28t+ZJ8yBMAd4jHid7wE+AeyVNSJJkiRJEzkQOCF3EANkKWl92BflCVNS0T5G2sn/vTxhDoy3As/HKYKSJEmSNJofktaH/VCeMFWlqbkDUCUWJG5/VSlRqOnfcgcgSZIkST3sKqIWVrtS+7zqQ5NzB6BKpJ7M15QShSRJkiRJE7s6cXsTWFINzADWkjb8cp8skUqSJEnS4NoXOBd4Wu5AesBTSevDrsYZZlLfSz3xn2CwT/xjgdm5g5AkSZI0cL7EcL/sQuCYvOFkNR0HYkgD56WknfSDOH1wGvAq4FriNXhf3nAkSZIkDZhdgDU8uX92LdFXGcRBBjeQ1pd9SZ4wJRXlo6Sd9N/KE2YWmwCnAH9k49dgKTArX1iSJEmSBszpjN9Pu53ou2ySK8AMzsWVCKWBcg5pJ/2H84RZqS2BU4H7Gft1eGOu4CRJkiQNlK2Bx2ivv3Y/0ZeZmyPQin2MtL7sN/OEKako15N20p+YJ8xKbAf8f8CDTPw6XI+rdEqSJEkq33G0n8BqtmVEImub6sOtzMuwHI40MKYz+jzq8dq+WSIt19bAp4DHSXstXpQjWEmSJEkDZ2siIfUAaX2WFcAngK0qj7h8B5D2WrgSodTH9iP9hJ+WJdJybA98gTiulNfhRqJQ4ozqQ5YkSZI0wKYTfZHUAuaPA2cA86oPuTQzSF+JcO8skUrq2omkneyL84RZuE2BjwCPkHb8zRU+6pTEkyRJktR/pgGvZHil9HbbcuCD1KfY+804i0YaCB8k7WT/dp4wCzMLeC/t1bhqtg3AecCiDPFKkiRJ0kQWEX2WDbTfz3mA6BvNzBBvkb5LWp/2fXnClNStr5B2sn80T5hdmwycDNxK+8e6nrgYHp4hXkmSJElK9Uzge6Qlsm4BXk7/LlD1j6T1ab+YJ0xJ3bqEtJP95XnC7MpzgatJS1x9DdgrR7CSJEmS1KV9gW8RfZt2+0FXAcfmCLZLryStT/uzLFFK6tpS0k72p+UJsyMHAhfR/rGtJQq675IjWEmSJEkq2K5EH2cd7feLLiRW9+sXh5PWp707T5iSujGbtBN9CNgiS6RptiJW11hD+8f1HeCpOYKVJEmSpJIdREwtbLd/tBr4NDA3R7CJtiGtT7uBqI0sqY8cRNqJ/mCeMNs2FXgn8BDtH9MvsTi7JEmSpMFwJPBr2u8vPQC8HZiSI9gED5PWt90/T5iSOnUiaSf57/KE2ZYTSFs+9RfAs7JEKkmSJEl5HQP8nvb7TzcBz8sSaXsuJ61v+8I8YUrq1HtJO8m/nifMcT0F+Abtr7JxK/AK+neFDUmSJEkqwmSiAPrttD/17ixg+xzBTuBs0vq2f5MnTEmdOpO0k/yjecIc1XQiAbeC9mJ/FPh7nOssSZIkSa1mAR8krW/1HmBajmDH8HHS+rafyxOmpE79lLST/FV5wnyShcQSr+3EvA74IjAvS6SSJEmS1B92AL4MrKe9vtYVwMFZIn2y15PWt/1JnjAldepO0k7y3DWjZgGfBNbSXrwXAgdmiVSSJEmS+tPBwMW01+daS4x+mpkl0mFHkta3vTVPmJI6MYv260Y123ZZIg1H0n6R9nuIOleTskQqSZIkSf1tEvBqYAnt9cFuJO/q7juOEdd4M3WmZ4lUUrK9STvBV5AnIbQ5MYy1nWTbGuCfgNkZ4pQkSZKkutkc+DTR15qoP7aeKN8yJ0Ock4FVbcTY2uZniFNSB44h7eS+OkOMfwosbTO+s4CdMsQoSZIkSXW3O3Ae7fXNlgDPzxDj9W3G12xHZohRUgdeR9rJ/b0KY5tB1Lpqp3jgg8BrK4xNkiRJkgbVG4CHaG80VtVTCn/QRlytrVcWKZM0gY+QdnJ/tqK4UlYY/AawbUVxSZIkSZJihfezGb+v9hOqL0HzhQliGtk+UHF8kjr0H6Sd3O+tIKY5wPI2YvkjcHwF8UiSJEmSRvcCRl/ZfjlRVL1qHxwllvHav2eIUVIHfkzayf2XFcX1pnFi2AB8Bti0olgkSZIkSWObDXyOjRfdekWmWF5FWh/3/DxhSkp1A2knd5Xzl782yvP/AXhmhTFIkiRJktrzTKLP9vWMMRxFWh/32jxhSkr1GGkn9y4VxjaXmCbYfO5zgK0qfH5JkiRJUpotGy2X3Unr4z6cJ0xJKeaSdmKvA6ZVHOOziLnTr674eSVJkiRJ/WcGG09lbKfNyRKppLYdQNpJfXeeML2YSJIkSZLatpS0vu5+ecJUWSbnDkCF2ylx+7tKiWJij2Z6XkmSJElS/7kzcfvUvrF6nAms+tk5cfvUi4AkSZIkSVVLHXyR2jdWjzOBVT9PSdw+1xRCSZIkSZLalZrASu0bq8eZwKqf7RK3N4ElSZIkSep1qX3X1L6xepwJrPpJPUmXlhKFJEmSJEnFSe27msCqGRNY9ZN6kt5XShSSJEmSJBUnte9qAqtmTGDVT+pJen8pUUiSJEmSVJzUvqsJLKnHrQSGEto2ecKUJEmSJKlt80jr667IE6akdswm7YRei6PwJEmSJEl5HApcA+zexrZTgPWk9Xk3LT5kSUXYg7STeUmeMCVJkiRJA24BUZh9CLgV2KmNfe4nrc+7W+FRKxtH39RL0QXcdwBe12EskiRJkiSNZgHwU4b7sPOBi5m4T2shd6kmXkxaNvon4zzWtsDNje0+VF7IkiRJkqQBshB4iNH7qNcBW46z70Vj7DdWe2EpR6AsHIFVL9smbj9W9noWcA6wZ+PfHwPe02lQkiRJkiQ1HA/MHeN3+xF90Rlj/D51BFZqH1k9zARWvRQxhXAq8C3giBE//yfgfZ0EJUmSJElSwz8Q/cuxHAV8jSjaPpJTCAeYCax62SZx+/tH+dkngT8bY/tPAEcmPockSZIkSa3+Dvj/x/n9iUSia6TR+rDjSe0jS6rI10mbD/zaEfu/aYLtP136EUiSJEmSBsUZjN8HfcOI7d8wwfYj21mlH4GkjpxP2sn8opZ9DwNWjbPtdxl9CKckSZIkSZ2YCnyfsfuhK4FDWrZ/yTjbjtb+t4qDkJTu16SdzM9u7DcPuGec7S4hCrtLkiRJklSkTYHfMXZ/9E6GpwIePc52o7VfVnUQktJcT9rJfCAxquoX42yzGJhT5UFIkiRJkgbKlsAtjN0v/QlRw/uQcbYZrV1b5UFIat+9pJ3MuwDvHuf3jwL7V3oEkiRJkqRBdBDwGGP3T98OzB/n96O1uyo9AkltW0nayXwE8MQYv9vAxjWyJEmSJEkq018QfdHR+qirgEVj/G6stqLa8CW1YyZpJ/I6YnrgWL//x2rDlyRJkiSJTzF2P/U6xk5wjdWmVRu+pInMI+0kHm/Fwd/iSS5JkiRJqt504PeM3V8daxbRWG0bJPWUfUg7icfKWj8I7Fhx7JIkSZIkNe0GPExaH3estmfFsaskk3MHoMJskbj9pDF+fgpwd5exSJIkSZLUqduJvmkRUvvKkkr2PLrPTJ9TedSSJEmSJI3uf+i+n3ts5VGrFI7Aqo9us8oPE8uSSpIkSZLUC94KPNrlYzgCqyZMYNXH7C73/ztgSRGBSJIkSZJUgHuA93f5GN32ldUjTGDVxyZd7Hsl8KWiApEkSZIkqSBfAK7tYv9u+srqISaw6qPTk3KIGJa5ocBYJEmSJEkqwnrgHV3sbwKrJkxg1cesDvc7H/hNkYFIkiRJklSgnwE/7nDfTvvK6jEmsOqjk5NyCPhA0YFIkiRJklSwTmthmcCqCRNY9dHJsMjzgWuKDkSSJEmSpIJdSWejsJxCWBMmsOqjk5PyE4VHIUmSJElSOTrpw5rAqgkTWPWRelLeCPy6jEAkSZIkSSrBz4FbEvcxgVUTJrDqI3Ve7/dLiUKSJEmSpPKcn7i9NbBqwgRWfaRmlX9eShSSJEmSJJXnZ4nbOwKrJkxg1UfqSflwKVFIkiRJklSe1L6sCayaMIFVH6kn5cpSopAkSZIkqTypfVkTWDVhAqs+ZiZuv6qUKCRJkiRJKk9qXza1r6weZQKrPqYmbr+mlCgkSZIkSSpPal82ta+sHmUCqz6mJG6/vpQoJEmSJEkqT2pf1gRWTZjAqg8TWJIkSZKkukvty6b2ldWjTGDVR2pW2QSWJEmSJKnfrEvc3gRWTZjAqg9HYEmSJEmS6s4RWAPKBFZ9mMCSJEmSJNWdNbAGlAms+jCBJUmSJEmqO0dgDSgTWPWRelKmzhuWJEmSJCk3a2ANKBNY9eEILEmSJElS3TmFcECZwKoPE1iSJEmSpLpzCuGAMoFVH6lZZRNYkiRJkqR+4xTCAWUCqz5S/5YmsCRJkiRJ/cYRWAPKBFZ9TErcfnopUUiSJEmSVJ6Zidub96gJ/5CDa07uACRJkiRJSrR57gCUhwms+hhK3H6zUqKQJEmSJKk8sxO3T+0rq0eZwBpcW+cOQJIkSZKkRFslbm8CqyZMYNXHhsTtdyslCkmSJEmSyrNr4vYmsGrCBFZ9pCaw5pcShSRJkiRJ5dk9cfvUVQvVo0xg1ce6xO1NYEmSJEmS+k3qbKLUvrJ6lAms+kg9KQ8qJQpJkiRJksqT2pddW0oUkjr2ADG3t922CpiWJVJJkiRJktJNB54gre97f5ZIVThHYNXHE4nbzwQOKCMQSZIkSZJKcBAwI3GfVWUEouqZwKqPToZFnlB4FJIkSZIklaOTPqxTCGvCBFZ9dLKywvMKj0KSJEmSpHJ00od1FUKpx9xI2jzgIaLw+zY5gpUkSZIkKcF2RDIqtd+7OEewKp4jsOqjk3m9U4CXFx2IJEmSJEkF+0s6y2FYA6smTGDVx8oO93tdoVFIkiRJklS8TvuunfaV1WNMYNVHpyflgcAhRQYiSZIkSVKBng7s3+G+JrBqwgRWfXRzUr69sCgkSZIkSSrWKV3sawKrJkxg1Uc383pPBnYtKA5JkiRJkoqyJ/DSLva3BlZNmMCqj26yylOBdxQViCRJkiRJBXkHsQBZpxyBVRMmsOqj25Pyr4BtiwhEkiRJkqQCzKP7hcdMYNWECaz66Pak3Az4aBGBSJIkSZJUgI8Bm3T5GCawasIEVn0UMa/3DcC+BTyOJEmSJEnd2J/uR1+BNbBqwwRWfRRxUk4FTi/gcSRJkiRJ6tQk4F/orvZVkwmsmjCBVR9FDYt8LvCagh5LkiRJkqRUbwCOLuixnEJYEyaw6qPIk/JTwNYFPp4kSZIkSe3YFvhEgY9nAqsmTGDVx2MFPtY2wKcLfDxJkiRJktpxOrBVgY9XZF9ZUgGeCwwV3E6u9AgkSZIkSYPslRTfrz2m0iOQNKHDKP5EXwHsXeVBSJIkSZIG0j7EaKmi+7WHVnkQkia2N8Wf6EPAr4FpFR6HJEmSJGmwTAd+Rzl92j0qPA5JbdiWck72IeCr1R2GJEmSJGnAnEV5/dki62lJKsB0yjvhh4C3VXcokiRJkqQB8W7K68duAKZWdyiS2vU45Z34q4FnVXcokiRJkqSaezawhvL6sY9WdiSSktxDuaOwlgK7V3Y0kiRJkqS62hNYRrl92DsrOxpJSRZT7sk/BNwF7FzVAUmSJEmSamcX4G7K779eU9UBqXyTcwegQj1cwXPsCPwA2LKC55IkSZIk1cu2wAXAUyp4rir6yKqICax6WZ64/UMdPs9+wLnAJh3uL0mSJEkaPJsB3yGmD3ZiWeL2qX1k9TATWPXySOL2ZxIF8zrxbOB/gVkd7i9JkiRJGhybEbN5Ol0cbDXwH4n7pPaR1cNMYNVL6oiqR4A3dPF8RxNDP2d38RiSJEmSpHqbQ/Qdj+hw/yHgZODxxP06nXWkHmQCq17uS9x+O+C/gM918ZzPAr4NzOziMSRJkiRJ9TQL+C7wjC4e4wzgHKIPmyK1jyypIm8kbUWGrzf2mwb8LHHfke1iIqsuSZIkSRLAFsDP6a6veQEwtfF430rc9/UlH5+kDr2QtJP5wpZ9twFuStx/ZLuc9Iy4JEmSJKl+tgeuors+5mJgy5bHvDhx/+eXeHySuvAM0k7ma0fsvytwT+JjjGw3Nx5HkiRJkjSYdgdupbu+5R3AjiMe9/rEx3haSccnqUvzSTuZR5sP/FRiqdFuLjRLgKeXcHySJEmSpN52ONHX7KZP+QCw7yiP/UDi4+xSwvFJKsCmpJ3M64ApozzOIuCxxMca2R4HXlL8IUqSJEmSetTLgFV015d8FDhslMeeBmxIfKxZxR+ipKKkJp7Gqll1ZAePNbKtB94PTCr2ECVJkiRJPWQy8GHSE0wj2wpiQMVodkh8rEeKPURJRbuNtJP6gHEe63Ai+93NBWgI+BEwt7hDlCRJkiT1iG3pfqXBIeAhYOE4z3Nw4uPdUtwhSirDb0g7qY+Z4PGeQ0wH7PZidAOwdzGHKEmSJEnqAQvofjX7IWL2z5ETPNdzEx/zkmIOUb1icu4AVLjRCrOPZ6wphE0/BV5ADOXsxj7ApY3HkiRJkiT1txcDvwX26vJxHgFOIEZxjWeivutIqX1j9TgTWPWzLHH7di4CPyVGYqU+9khzgO8BnyIK8EmSJEmS+ssM4F+Ac4DZXT7WUuDZwC/a2DY1gdVt/1U9xgRW/aRmmXdqc7vLgCOAOxIff6RJwN8CvwR26/KxJEmSJEnV2QP4FXAK3S/WdStRsP2qNrdvt+/a5Agsqce9ibR5wecmPv5TiHpW3c5xHgKWAyd2dJSSJEmSpCq9jJjuV0Rf8FpgXuLz/0/ic7yho6OUVJkTSDupL+3gObaimFUmmu2rwBYdxCFJkiRJKtcWwH9SXP/vx3TW/7si8XmO6+A5JFVof9JO6iUdPs90ir2I3cnEKyJKkiRJkqpzLHAXxfX7PgNM7TCWZYnPtW+HzyOpIpuTdlJvIIrwdeoUYH3ic47XzgbmdhGPJEmSJKk7c4m+WVH9vNXAa7uIZxOi75rynJt18XySKpI6L3l+l8/35x0853jtRuDwLmOSJEmSJKVbBNxMcf275USpm27slficD3X5fJIqspi0k/vIAp5z7w6ed7y2HvgsMKeA2CRJkiRJ49sc+DzpI53Ga1cTKxd26+gOnldSH/gRaSf3yQU970zgPxKfe6K2FHhVQfFJkiRJkp7sjcCDFNuX+wLdlatp9drE5z6voOeVVLIzSTu531/w878bWJMYw0Tt28AOBccpSZIkSYPsKcB3KLbvthp4R8Fxfjgxhs8V/PySSvIh8p/cBwM3JcYxUVsJnEpxWXxJkiRJGkQzib7VSorts10LLCgh3i8mxlH0IA1JJXkNaSf390uKYwvgnMRY2mlXE4UFJUmSJElpjgSuo/h+2tlEHa0y5CqTI6lkx5CeECrTX1N8Zn8D8C1gt5JjlyRJkqQ62IMozVJkkfYhYBXw5pJjvz4xpiNLjkdSQfYm7eReAUwqOaY9gF8nxtXuxfLjwGYlxy9JkiRJ/Wg28EngCYrvj10B7F9y/JOJfl9KXPNLjklSQWYA60g7wasokD6VqM9VdIH3IeAeYrXCshNxkiRJktQPJhOr9y2h+P7XWuBjwLQKjmOXxNjWEH1PSX3idtJO8j+pMLanATcmxtdu+x1wRHWHIkmSJEk950jgUsrpc91A9Omq8pzE+G6uMDZJBbiAtJP8dRXHtwlwGpG5L+Oiej5wUGVHI0mSJEn5HQL8kHL6WGuAfwBmVXY04Y2Jcf6w4vgkdenzpJ3k/5gnTA4GrmwzxtS2HvgGUX9LkiRJkupqL2KRq6ILtDfbZcCBlR3Nxj7ZZozN9pk8YUrq1HtIO8n/O0+YQMxPfj/phflSPin4d2Cnqg5IkiRJkiqwC/BFypvZshL4O/LWlDp3lLjGa+/ME6akTr2ItJP88jxhbmRv4ELKufAOEatufJZqCtZLkiRJUll2JGbdrKa8/tOPgT2rOqBxXE1a3M/PE6akTu1P2kn+SJ4wR/VS4G7KuxCvAk4H5lV1QJIkSZJUgB2AfyU+nC+rv3Qn8JKqDmgCk4DHSYt/nyyRSurYLNLnP2+TJdLRzQb+mfKGwg4RF8J/Arav6JgkSZIkqRM7Ap8mpvSV1T9aQ9Sb2rSiY2rHDqQdwzpgRpZIJXUldRTT4XnCHNf+wMWUd5EeIj69OBOLvUuSJEnqLXsDX6LcqYJDRCmXfSs6phRHkHYct+cJU1K3fkbayf7KLFG250XAzZR70V5HFLM/uKJjkiRJkqTRHAqcQ6ysXmYf6EbgBRUdUydeS9rxXJAnTEnd+hJpJ/tH84TZtsnAq4CllHsRHwIuIS7kkyo5MkmSJEmDbhLRB7mE8vs7S4i+1eRKjqxz/0jacX0hT5iSuvV+0k72b+cJM9lWROHCNZR/Yf8tMfqr1y/skiRJkvrTZKJo+qWU379ZDfwLsGUlR9a975J2fH+bJ0xJ3TqRtJN9cZ4wO7YHMeUvtVh9J+164NXAtEqOTJIkSVLdTQdeR0zjK7s/swH4JjC/kiMrTmoZmRflCVNSt/Yl7WRfS3+u2PB0yi/03mz3Ax8HdqrkyCRJkiTVzS7AacAyqunDXAgsrOTIijWL9BpgLswl9ampxAp7KSf8/lkiLcYJwDVU8yawFjgXOKqSI5MkSZLUzyYBRwPfIRaPqqLPciVwXBUHV5KDSTvelVj6Repr15J20r80T5iFmQy8AriJat4UhojX+M3AphUcnyRJkqT+sRnwFqJcS1X9k+uJfl2/J3NeQXrCTlIf+2/STvpTs0RZvOYKHldS3RvFKuAs4IAKjk+SJElS7zqQ6Busorr+yBXUayX11BUIv5YnTElF+QhpJ32/rETYrsnASVRTGLG1XUYsSzu1/EOUJEmS1AOmEX2Ay6i273ED0efp9xFXI6WuQPiBPGFKKspJpJ30/bYSYbumAa8ErqPaN5NbgHcBW5V/iJIkSZIy2Ab4G+BWqu1rXENMs6vrh+auQCgNmAWknfRriOVc62wRcB7VvrmsBy4gPpGZVf4hSpIkSSrRJsS9/QWkr5TXTdtA9GUWlX+IWc0ivdj9XlkilVSYacBq0k78/bJEWr2DiHnpVa0C0mzLgS/Qn0vZSpIkSYNsEXEvv5xq+xDriL7LQeUfYk84kLTXZyUwJUukkgp1PWkn/0vyhJnN7sAZVFtgsdkWA+8Fti39KCVJkiR1Ylvinr3KlQSbbRXRV5lf+lH2lpeR9jpdnSdMSUU7h7ST/2N5wsxuHrEK48NU/8a0mhgKfBIxak6SJElSPtOIe/MLqH7GxhDRJzkV2K7k4+xVnyDt9fpmnjAlFe1jpJ38/5snzJ4xDzgNeITq36iGgNuJN6vdSj5OSZIkSRubD3wUuIM8fYGHgY8zuImrph+S9rp9KE+Ykop2Imkn/115wuw5mwJvJFb3yPHmtQH4FfA2nGIoSZIklWUe8A7g18Q9eI57/6uANxDF4QVLSXv9XIFQqon5pF9ABz3jP9JColjjSvK8oa0HLgFOwb+NJEmS1K15xL31ZeS5vx8CHif6GIeUfKz95imkv5Y7ZYlUUuEmAQ+RdgF4bpZIe1+zgOMfyfdGt45IZr0RmFPq0UqSJEn1MYe4h76EPHWtmu2PRPJsi1KPtn89n7TXc1meMCWV5WLSLgLvyxNm35gMvIAo6phrmPEQsSrJecCrcLixJEmSNNKmxL3yeeRZdbzZNhB9hxcQfQmN7YOkvbY/yROmpLL8M2kXgf/OE2Zf2ptY2vYx8r0hDhEFH88i3hRdyVCSJEmDahpxT3wWeVYYb20riL7CXqUecb2cS9pr/Mk8YUoqy8mkXQRuzhNmX9sW+ACximDON8khohD/Z4FjMJklSZKk+psGHAt8Drib/PfjtxKzWrYp86Br6jbSXuuX5QlTUln2I+0isAHrK3VjIfFJywPkf/NcyfA0Q+fZS5IkqS62JWpanUe+xZZa2wNEH2BhmQddc3NJL9Gyd5ZIJZVmCrHKRcqFYFGWSOtlJnAS8aaas1BkszULwJ8C7FjicUuSJEll2JG4l81diL3Z1hL3+icBM0o87kHxbNJe/xVYU0yqpd+SdjF4e54wa2tHYgXDP5D/jbbZFgOnAgvKO2xJkiSpKwuJe9bF5L9/brZbiHv7p5R32APpnaT9HX6VJ0xJZfsCaReDL+cJcyAsJP4eK8j/5ttstxJDnhcBk8o7dEmSJGlck4l70jOIe9Tc98nNtoK4h3eKYHn+k7S/yb/lCVNS2d5M2sXg+jxhDpQtiZFul5P/Dbm13UG8Ob8I2Ky0o5ckSZLCbODPgTOBO8l/P9zafg+8lajPpHLdRNrf5q/yhCmpbIeRdjFYj0W/q3QAsQTsHeR/k25tq4ELgb8B9i3t6CVJkjRoFgDvAS4i7jlz3/e2ttuBTwBPLe3oNdJWpBdwPzRLpJJKNwtYQ9oF4bgskWo/Yp5/Lw2Zbrb7gbOJVQ39FEqSJEntmkvcQ55N3FPmvq8d2W4l7sH3K+n4Nb7jSft7rSYWzZJUU5eSdlH4SJ4w1dA6//8+8r+pj2zrgMuIN/qFWDtLkiRJwyYxXID9Mnpj1cCRbSnDdWBdzS6vj5H2t/tNnjAlVeUzpF0UfpAnTI1iFnAicC6wivxv9qO1W4gbgOOBOeW8DJIkSephmwMnEP2OXlp9u7WtBL4NvBhH8PSSn5D2dzw9T5iSqnIyaReFB3FUTS/aHHgN8CN685OsIWAt8anIPwDPwZsDSZKkOpoFHA18HPgtvX1v+kNiCqMftPaeycAjpP1NX5YlUkmV2YP0i/1eWSJVu7YF3gb8gt69YRgiRo1dCPw98AxgahlhBPVSAAAgAElEQVQvhiRJkko1FTgc+ADwU3p3ZsAQcW/8M2IFwW1KeC1UnP1I//vumiNQSdWZBCwj7cLwyiyRqhObAi8AziL9E4yq20rgEuA04BhgWgmvhyRJkroznbhXO424d1tJ/vvI8dojxL3wC4BNSng9VI7XkfZ3XpInTElVO5+0i8Nn84SpLs0kbjbOAO4l/83ERG0FcAHwXiwIL0mSlEuz8Pp7iXuzx8h/nzhRu5e45z0GmFH8S6IKfIG0v/n/5AlTUtU+TNrF4bI8YapA04HjgM8D95D/JqOddjvxRvYKYJfiXxJJkiQ17ErUyj0TuIP894HttHuAzwHH4kj+OriatL//+/OEKalqzyPt4rAaC3DXyWSiBtVpwE3kv/lot90JfB14C/BUXOZYkiSpE5OBA4kaqt8E7iL/fV677UbgE8BhOFq/TjYliuyn/F84Okukkiq3JbCBtAvEoiyRqgoLiCHiPwGeIP+NSbttOfB94tOXIzDJKkmSNJpZwJ8QRdd/ADxM/vu4dtsTwI+BvwP2LfqFUc94Dmn/L9bjSpLSQLmRtIvE3+cJUxWbSiQrTyOmjua+aUlp64DFxLTDV+G0Q0mSNJh2Ie6FvkDcG/XyKtWjtcuIe9FFuGr1oDiVtP8j12aJUlI2XyXtIvHjLFEqt/2AvyWWSF5D/hualLaeeHP7HPBG4CC8CZIkSfUyDTgEeBPw78B1pM+0yN1WAxcB7yFmBmjwXEza/5kv5glTUi6vJe0i8ThRCFyDaw7wYuIN427y3+x00h4nln/+NPAyYLdCXyFJkqRyzQdeDpwO/ApYSf77q07aXUTB+D8HZhf6CqnfzCS9jMkrskSq7Cx8N7h2B/6QuM/hwG9LiEX96SDg+EY7nP4d3XQ/cCnw+8bXS4GHskYkSZIUdWsPA54OPK3x/dZZI+rcOuDXwA+JOlzX5A1HPeRPgJ8n7rMT8YG6pAFyJ2mZ7vfmCVN9YC7xCdq/EDck/TZ0fWS7Cfgv4B3Eio0zinupJEmSnmQmcc/xDuBrwM3kvx/qpm0AriZGir0I2KK4l0o18yHS/m/dlidMSbl9nbSLxfl5wlQf2o6YoncmcCv5b6K6bauJkVmfJYYsLwCmFPZqSZKkQTKFqDN6MnFvcSn9V2t0tHYLUTj+pcC2hb1aqrsLSPt/9pU8YaoXOIVwsDWLPbbrUWIo8/pywlGNbQscCRwDHEs9ak+tIz4dvZxY4ed6Ymj8gzmDkiRJPWVrotTCAiJptRDYi/4tvdDqeqK26IXAz4BlWaNRP5oOLAc2SdjndZjEGlgmsAbbPsANifscSnTYpW7sBzyn0Z5NfYaVryPOqStb2lXAIzmDkiRJldiCqBF6cEvbh3okqyASDT8jVqf+KZHAkrpxOPEBcIrdcRrhwDKBNdgmAUuI6V7t+htiBTepKFOI5Z+fAxwNHEHUgaiLIeB24AqGE1pXEueeJEnqTzswnKRqJq3mZ42oeE8QxbWbCasrcSaGivU+4BMJ298J7FJSLOoDJrB0NnBSwvbfIwoxSmXZhFhp50+AZxGfzMzJGlE5lhKjGa9ttMXE6K01OYOSJEkbmQHsS4wef2qjLSTtA+B+8Sjwq0b7JbFC86qsEanufkCsaN6urxO14zSgTGDpHcAZCds/SNQz2lBOONKo5gOLiITWIuJGsq7XryUM19Rqra/lDaQkSeXZhBgR3qxV1fy6fc6gSjREfHB2CZGwugSnZalaU4EHgM0T9vlr0mo4q2bq2gFU+w4kpjSlsA6WcmsmtJptH+p9PVtFJLGuIxJazRFbd+UMSpKkPrUzwyOq9mc4YVWnEgYjtSasmu32rBFp0HVS/2oB6TWcVSN17vCpPZOA+4kVUtr1AeDj5YQjdWRrYnTWEY2vC4FpWSOqxsNEIus6Iql1HfGmfn/OoCRJ6hHbEaO2m4mqZrIqZcRHv1pDfODcTFb9CldKVm85FfhIwvb3Ak8pJxT1CxNYAvgf4IUJ218EHFNSLFIRNiGKqR4KPB04jFixZFA8DNwM3NRoN7d8fSJjXJIkFW0WsFdL26fxdW8GI1HVdAtwaaNdRhRct/yAetkviA+f2/Vt4C9KikV9wgSWAN4C/FvC9muArYDHyglHKsVmxCpBC1vagqwR5bGcqHFxPTF667aWf3ujK0nqRbOI9+z5DE/3m99oczPGlUuzTmazXQk8njUiKc3mRP2rqQn7/BXwH+WEo35hAksAexIjM1KcAPywhFikKu1OjNBqtkOod/2L8awirgPNdmPL10czxiVJGhybEyOn9ml8bR1ZNcjvz1cwPLrqUiy2rv73QmIWUIpdgDtLiEV9xASWmm4DdkvY/nTg3SXFIuXULBDfHKV1KLGE9iBbDdzDxqO1mqO37gDW5wtNktRHphIF1EcbSfUUfL99go1HVrkyoOrqs8BbE7a/mUhqa8CZwFLTmcSwzHZdRxTElOpuDvBMYoTWwY22S9aIestjwK3AHxpfW9tdmNySpEEzBdgJ2IMY6TyybZYvtJ7zR2L635XEyKrf4KhnDYabiVlA7fo34G0lxaI+YgJLTScBZydsP0R8UraknHCknjaXmG54MFFX62DiU6EpOYPqQWuIm/ORya2HGj9fCmzIFJskqTOTgXnArkRN1JEJql2B6Zli61XriSn5VwJXMZy0Wp4zKCmT3UgfWfgi4HslxKI+YwJLTVsB9xM3Je16FfBf5YQj9Z2pRBKrWRx+P+Bw4tzS2JpF5ZcQyyPf1tKaP5MkVWcHYHuGp/bNH/GzQSyanuIB4LfEVPtmsfWbgHU5g5J6yBuALyZsv5a4n15RTjjqJylV/1VvDxIFIg9N2OdYTGBJTeuIm9XFI36+AxuvfHgo8cm1wlzidRnLE2yc2BqZ6LoTOwWS1K7WGlQjE1PNfw9qsfROLGHjmlWX4wcv0kSOTdz+95i8UoMJLLW6iLQE1nPKCkSqkXsb7byWn+1IjNB6asvXfYFNKo+u981kuGM1mpXEdMQ7iZpb945oS4D7cKqipPqbDGxHJKGabXui5MOOROJqV3yv6cTjwA3AtcQHVdcS9WBNVklpJgNHJe5zURmBqD85hVCtjgJ+mrjPIcQcfkndm0sktFqnIR4EbJozqJpojuRaMuJr66iuu4hh6pLUS6YRRdFbR0yN9tWRU917DLiajaf/LcZaVVJRnkEsVpDiWcCvS4hFfcgRWGr1G2AVMCthn+MxgSUVZTmxZPYlLT+bDuzDxiO29icKYPohRPsmGskFsJooLH8PkdRqfr2XqGlyH1ErcBmREJOkbswEtiFGTW3b+L511NQ8YuTUPCyKXrQNwO3EKKrFwDWNrzfhBxlSmY5P3H4FMYVQAuz86Ml+DByXsP1vgGeWFIuksW1GTDs8gBixtS9RRH77nEENkBUMJ7QeIJJaSxtfRya7lmGdLmkQTAO25slJqa2JJNQ2LW0ecR1X+e4lElM3AJcRSavriWmBkqp1OTGDp13nAX9WUizqQyawNNI7gdMTtt9A3IQtKyccSYnmAHs12j4t3++NdU9yepDhZNf9RIJrWePnDxGj70Z+Nekl5TMV2JKY2j3y61YMJ6Fak1KuOpvP48DNjXZTS7sZiz9LvWIH4G7SchBvAT5fTjjqRyawNNJuRE2YFK8HvlxCLJKKNZfhaXT7EXW25mMB+V72BJHMarZm/a7l47QHgDU5gpV6zHRi9NPcMVqzdtTIn1tLqjetJEZR3UaMoFrM8Iq01qiSet+bSUtGDRHTqF0sQf/HBJZGcx3RuW3Xd4CXlBSLpPLNYHikVnO01iFEcssC8v1nLTGK69FGe5gYgbCCKFA88mfNtrxlm+bPpFxmj2hbjPGzOY3vNxvxs82JZNS0qgNX1x4jklKXMzyq6mbgFqJWoaT+dB7w/ITtryDKZEj/xyLuGs33SUtgHUd8WmlRY6k/rSaWBL92lN/NY3jU1u4jvlpvqzdNI+rvbFfAYzWTWq2tmfxa2/h+PZEUW0NM43mCWBDk8cbPVhDTIZvbPtL4twmy/jabuI/cglgWfYvGv2cTI582JRaFmUkkl6YRiaUpRGKpue1cNk5ANX+memuuAnsrw6Oomt/flzEuSeXYBDg6cZ/vlxGI+psjsDSaRcAvE/d5HlEAXtLgmMVwMmtkgmtXYmSXNJ7VxLSgVUTi6zEiMfYIUWOxNdHV3AYiYba+sc0jIx6LlseB4alFaxs/p7HdeCM5Wh9rNM2kXTeayZyxbML459BMhlcNbiaIYDj5M43hIuGtj7U5kXCa0ohh5GM1E1PN3zcfp7nNRHFJEOfQ7YydpFqVLzRJGTyfGIGV4jDg0hJiUR9zBJZG8xuihsrWCfv8KSawpEGziphyfN0ov5tMLAPfmuDamUhs7dz4ne9BmtFojriR+ss64B7gTuCPja+tCap7iASzJEH0FVMsJVYNlTbiCCyN5b+AkxO2v53ooEpSO6YQxZN3abSdW1rzZy4xL0l5PAbc0Wh3trTmz+4lRiJK0kQmEdePHRP2+TKxUJi0ERNYGstfAl9P3GcBsTqMJBVhS4aTWruycZJrZ6zBJUmdGCJGN9wB3MVwcur2ln8/lC06SXVzAHB14j4nAeeUEIv6nNM3NJYfEcPDU/6PvBATWJKK81CjXTXG72cwnMjaiShaviNReL7166wx9pekullJTN9bCtw9ytd7iSSVq/lJqsoLE7dfA/ykjEDU/xyBpfH8HPiThO0vA55WUiyS1KktiOmKrW17og5X8+s8LEwtqXetBpYQyaklRCKqtTV/98hYDyBJmVwFHJiw/UXAMSXFoj7nCCyN539JS2AdShRsvrWccCSpIw832vUTbLcNw6O2tiMSW9s02raNn23d+Lfvn5K6tQ5Y1mj3A/cRi+gs48mjqB7IFKMkdWMf0pJXEH1QaVSOwNJ49iF9SuC7gdNLiEWSeslMokbXXGIU1w6N70f7947AnDxhSqrQo0TCaXmjNUdGjfbvh4An8oQpSZV5L3Ba4j57An8oIRbVgAksTeRaYP+E7X8LHF5SLJLUj6YwPJKrOcprKyK5teU4X6fnCFYSEDVYHmI42dT6ffPrg8ToqGUMj5xyZT5JGnY5cEjC9lcAC0uKRTXgFAhN5FzSEliHEcWU7yonHEnqO+uJTu7SDvadxfBIrrHayBFfW2I9LwmiblQz4TTaiKix2qocwUpSzcwnLXkF0feUxmQCSxM5B/hIwvaTgBcBnyknHEkaKKsa7d6EfSYRhevnALNb2uZj/Gzzln9vNuJnjgJTDmuAFURB8kca368AHhvlZyuIqXsPt2zT+rOhimOXJIUXd7DPOYVHoVpxCqHacQNRD6tdPweeXU4okqQKzSASWXOIpNhmjbZpo00nkl3TGtvMJEaNzW78bIvGNpsCmzQer3V79a9HgbVEMmk1sJJIHq0lRjGtIxJJq4haT6Nt/zjDCadmYuqxxu8lSf3tN8AzEra/DnhqSbGoJhyBpXZ8F3h/wvZHEFNalpQTjiSpIqsbrawV0EZLeE1t/JvG72Y2vp9D1BObTCTBIBJimzS+36zxGBBTKRnnsWYz/j1Q67ajmdZ4vm40kz1jeYLxp7I1E0Qjt13R+N0QMQIJYkTT443vH2/8G4ZHKE30WMsbsT7GcEJKkqSx7ESUlknh9EFJhVhI3OCmtDdliVSSJEmSlNM7SO8/OvpKUiEmAXeQdgH6YZZIJUmSJEk5/ZS0vuMf8oQpqa5OJ+0itIZYJl6SJEmSNBjmMTyVvd32ySyRqu9Mzh2A+sZ3ErefBpxURiCSJEmSpJ70UqJmZQrrX0kq1GTgbtIy6b/KEqkkSZIkKYffk9ZnvDVPmJLq7nOkXYw2ADtniVSSJEmSVKU9iD5gSp/x9CyRqi85hVApvpG4/STg5DICkSRJkiT1lJOJPmCK1D6mJLVlEnA7aRn167NEKkmSJEmqyiRiNcGUvuJNWSJV33IEllIMAd9K3Gdf4MASYpEkSZIk9YZDgd0T9/lmGYFIUtMBpGXVh4DTskQqSZIkSarC6aT3E/fOEqmkgXItaRemO3G0nyRJkiTV0RRgCWl9xMuzRKq+ZlJBnUgd6rkTsKiMQCRJkiRJWR0FzEvcx+mDkiqxB+nDQz+bJVJJkiRJUpnOJK1vuAHYOUukkgbS70i7SD0AzMgSqSRJkiSpDLOA5aT1DX+ZJVL1PacQqlOpQz63Al5QRiCSJEmSpCz+HNgicR+nD0qq1DbAWtIy7T/OEqkkSZIkqQwXk9YnXA3MzRKppIH2I9IuVutxrrMkSZIk1cHuRD2rlD7heVkiVS04hVDd+Ebi9pOBV5QRiCRJkiSpUicDkxL3Se1DSlIhOinYdxsmTiVJkiSpn00B7iKtL7gMmJ4jWEkC+DxpF60h4Nk5ApUkSZIkFeI40vuBZ2SJVJIank76hes/s0QqSZIkSSrCN0nvBx6UJVJJanE1aReulaQvtSpJkiRJym9rYjXBlD7gFVkiVa1Yi0hFOCtx+1nASWUEIkmSJEkq1UtJr2X1lTICkaRU2wNrScvA/zJLpJIkSZKkbvyOtL7famCbLJFK0ii+S/oc6AOyRCpJkiRJ6sRC0vt9/50lUtWOUwhVlNRphABvKDwKSZIkSVJZOunDddJXlKTSTAXuJS0T/ygwO0ewkiRJkqQkmwOPkdbnuxMHzqgg/kdSUdYBX0vcZzbw8hJikSRJkiQV62Rg08R9zgI2lBCLJHVlAenzoX+fJVJJkiRJUoorSevrbQD2zBKpJLXhItKTWIdliVSSJEmS1I5FpPfz/l979x322VXXe/89M+mFkJBKL6EFISJGiiBFFOnCEUWEWB88YkE9KqJHReF5xHIeRVER5RwBUQGRJnIEQUpA4dARBKkpECAhpLeZzH3+2DOShATm1/a+y+t1XfvKPYSZfFa4WOu71l57rddOkhRgHz2m2Tu2/zVJUgAAAPbFC5t9nvedkyQF2Ef7VZ9pto7t0uqoKcICAADwVR1TXd5sc7wzG+aGsDQOcWfZdjX7jqqDq1NXkAUAAIDFfH914Iy/53kNc0OAde3mDZ3VLCv0/15tmyIsAAAA12l79fFmm9tdWZ0wRViAeby22b+R/pZJkgIAAHBd7t/s87pXT5IUYE4Pa/aO7hWTJAUAAOC6vLrZ53XfMUlSgDnt13Bw3ywd3a7qlhNkBQAA4JpuU13VbHO6T1c7JsjKFuAQd1ZlV/WcGX/PjuqnV5AFAACA2fxMs68ZPKdh0QtgQzm+uqLZVuwvrI6YIiwAAABV3ai6pNnmcpdXR08Rlq3BDixW6XPVK2f8PYc3XNMKAADANL6/OmTG3/Py6twVZAEYxd2b/dC/T+e7aQAAgCnsX53V7PO4b5giLMAy/Uuzd36PniQpAADA1vY9zT5/e+skSQGW7LHN3gG+ZZKkAAAAW9s8GxC+a5KkAEu2X3VGs3eCp0wRFgAAYIu6R7PP2z6ZI2AYgUPcGcOu6s/m+H1PWnYQAAAArtdPzPF7nltdtewgAFM5prqs2a9hvfEUYQEAALaYm1dXNtuc7ZLqRlOEBVil5zb7dtT/f5KkAAAAW8sfNvt87dmTJAVYsZObvUO8oDpiirAAAABbxI2qi5ptrra7OmmKsABjeH2zL2L990mSAgAAbA2/0ezztNdMkhRgJI9s9o7x7OqgKcICAABscodUX2j2edqDpwgLMJbt1X80e+f4xCnCAgAAbHI/0ezzsw9V26YICzCmH2z2DvKT1X5ThAUAANikDqjObPb52fdNERZgbPtXpzd7J/m9U4QFAADYpE5t9nnZx6sdU4QFmMLPNHtH+f5sUwUAAFiG7dWHm31e9uNThAWYyqHVOc3eWT5oirAAAACbzMOafT7mgi1gS3pGs3eYr58kKQAAwObypmafj/3aFEEBpnZUdVGzd5r3nSIsAADAJvGAZp+HXVgdOUVYgPXg95u943zDJEkBAAA2h9OafR72O5MkBVgnblXtbPbO855ThAUAANjg7tPs868rq5tNERZgPfmLZu9A/2mKoAAAABvcPLuv/mySpADrzF2q3c3eid5jirAAAAAb1L2bfd51VXXSFGEB1qOXNntH6kZCAACAfffPzT7vetEkSQHWqTs1rOzP2pneZ4qwAAAAG8x9m2/31R2nCAuwnv1ts3eor5skKQAAwMbyxmafb/3VJEkB1jm7sAAAAJbP7iuAJXtVs3esr5kkKQAAwMbwumafZ/3tJEkBNoivb74bCe8/RVgAAIB17tuy+wpgJV7e7B3saZMkBQAAWL+2Ve9q9vnV30wRFmCjOaXZO9i16jumCAsAALBOPbLZ51W7q5OnCAuwEb2i2TvaD1TbpwgLAACwzuxXfbTZ51UvniIswEZ11+Y7C+v7pggLAACwzvxg8519ddIUYQE2snluJPxow5sGAACAreqA6hPNPp962RRhATa621c7m73TfdIUYQEAANaJJzf7PGpnddspwgJsBn/R7B3vZ6tDJ8gKAAAwtcOrc5p9HvVnU4QF2CxuUV3e7J3vL04RFgAAYGK/0uzzp0urG08RFmAz+aNm74DPrY6YIiwAAMBEjqzOa/b507OmCAuw2RxTXdjsnfD/mCIsAADARH6/2edNF1RHTxEWYDN6erN3xFfkEEIAAGBruF11ZbPPm35tirAAm9W8W2H/aoqwAAAAI3tJs8+XvpijVwCW7ueavUNeq+49RVgAAICRfGvzzZV+ZoqwAJvdQdUZzd4pv6PaNkFeAACAVdtevafZ50mnN8yxAFiBJzXfm4X/MkVYAACAFXts882RfnSKsABbxY7qg83eOX8qbxcAAIDN5ZDqrGafH727YecWACv0kOZ7w/ALU4QFAABYkV9uvrnRA6YIC7AV/WOzd9IXVsdNERYAAGDJTqguavZ50WumCAuwVd2tuqrZO+vfmyIsAADAkj272edDu6q7TBEWYCt7XvN12CdPERYAAGBJTmm+F/p/MkVYgK3uxtXFzd5pv7XaNkFeAACARW2r3t7s86Dzq2MmyAtA9YzmO7Tw0VOEBQAAWNBjm28O9CtThAVgcHB1RrN33mdWh06QFwAAYF5HVJ9r9vnPp6uDxo8LwNX9YPO9gXjGFGEBAADm9NvNN/d53BRhAbimHdUHm70Tv7S65fhxAQAAZnZidXmzz3veU22fIC8A1+He1e5m78xfNUVYAACAGb2+2ec7u6t7ThEWgOv3N823nfYhU4QFAADYR49svrnOC6YIC8BXd9Pqombv1D9WHThBXgAAgK/loOoTzT7POb86boK8AOyDX2u+NxM/O0VYAACAr+EXm2+O89QpwgKwbw6oPtp8B7rfeoK8AAAA1+cOzXdw+79X+0+QF4AZPKz53lD87ynCAgAAXIdt1Zuab27zwPHjAjCP1zVfR/+oKcICAABcy/c035zm76cIC8B8btN8W23Pro6cIC8AAMBeR1fnNvt85pLq5hPkBWABv9l8byz+eIqwAAAAe/x5881lfn2KsAAs5gYNO6pm7fR3VadMkBcAAOBe1VXNPo85qzpsgrwALMGjm+/NxXuq/SbICwAAbF37Vx9ovjnMwybIC8ASvaz5BoBfnCIsAACwZf1q881d/nqKsAAs1wnV+c0+CFzacBg8AADAqt2h+S6iOq86boK8AKzAzzffm4yXTxEWAADYcl7TfHOWJ08RFoDV2FG9q/kGhMdOkBcAANg6Tm2+ucrbq+0T5AVghe7WcMPgrIPCOdWxE+QFAAA2v5s035EnV1Z3niAvACN4TvO92XjBFGEBAIBN78XNN0f5gynCAjCOw6uzmm+AePQEeQEAgM3re5pvbvLJ6pAJ8gIwou9qvkHi7OqoCfICAACbz7ENx5XMMzd58AR5AZjA65pvoPjzKcICAACbzvObb07yminCAjCN21QXN/tgsbv6tgnyAgAAm8dDmm/x6qLqluPHBWBKP9Z8g8ZnqiMnyAsAAGx8RzUcTzLPXORHJsgLwMS2V29pvoHjjybICwAAbHzPbb45yD9X2ybIC8A6cNvqknxKCAAArN6DG+YSs84/Lq5uPUFeANaRn2i+NyCfr46bIC8AALDxHF99ofnmHv91grwArDPbqzc130DyivHjAgAAG8y26rXNN+f4x3w6CMAet68ua74B5XET5AUAADaOU5tvrnFJw7EnAPCfntx8g8pF1YkT5AUAANa/2zacYTXPXOMnJsgLwDq3vXpz8w0sp1U7xo8MAACsYzuqtzffHONNDXMUAPgKd6wub74B5skT5AUAANavn2++ucVlDcecAMD1mvdTwsurkyfICwAArD+nVDubb27xpAnyArDBLHJDyIeqg8aPDAAArCMHVx9uvjnFP+TWQQD20a2qC5tvwPmtCfICAADrx+8131zi/OrmE+QFYAN7QvMNOrurR0yQFwAAmN6jmm8esVY9doK8AGwCL26+geec6sYT5AUAAKZzi+pLzTeH+OsJ8gKwSRxXfaH5BqDX5tt1AADYKrZXb2i+ucPZ1dHjRwZgM3lQw2eB8wxEvzRBXgAAYHxPa/4jSB44flwANqPnNt9gtLO61wR5AQCA8Tyguqr55gzPniAvAJvUodV/NN+AdEZ11PiRAQCAEdyoOrP55gofqQ4ZPzIAm9k3N+yommdgeuEEeQEAgNWb9+KnK6q7T5AXgC3g55pvcFqrfmSCvAAAwOo8qfnnBz81QV4AtohFbha5qLrN+JEBAIAV+LrqkuabG7ixHICVO6b6bPMNVB/IN+4AALDRHVF9vPnmBKdXR44fGYCt6P7Nf8vIX06QFwAAWI5t1auaby6wq/qW8SMDsJX9VvN/7/7DE+QFAAAW97PNPw94+gR5AdjiDqze03wD18UN38wDAAAbxynV5c03B3hHtf/4kQGgbl2d33wD2MerG44fGQAAmMMx1ZnNV/t/sbrZ+JEB4Mse0/xbiF+V20cAAGC929H8t5GvVY8eP5Si1NcAAB5aSURBVDIAfKW/av7B7KcmyAsAAOy7pzZ/vf8X48cFgOt2aPVvzTeg7cxNJAAAsF49qPlvIH93ddD4kQHg+t25uqT5BrYzq+PGjwwAAHwVN64+23w1/kXVHcePDABf23c3/9bif2242RAAAJjeIdV7m6+23109YvzIALDv/qD5F7GeP0FeAADgK72o+ev6350gLwDMZP/qtOYf7H58/MgAAMDV/Gzz1/NvrvYbPzIAzO5W1XnNN+BdXt1j/MgAAEDDBUtXNl8tf051s/EjA8D8vrXa1XwD3+cz8AEAwNhuU32x+Wr4ndX9Rk8MAEvwtObfevyehoMjAQCA1Tu0en/z1+9PHT8yACzHjuqNzT8I/tn4kQEAYEt6fvPX7f+72j5+ZABYnuOrs5p/MPyx8SMDAMCW8uTmr9dPr44ZPzIALN/dGw5nn2dAvCLf0gMAwKo8sOH8qnlq9Uuru40fGQBW53HN/1bnwurO40cGAIBN7eSGWnueGn139ajxIwPA6v1u8y9ifao6dvzIAACwKd2kxY76+M3xIwPAOHZU/9D8g+TbqgNHTw0AAJvLIdW7mr8u//sc2g7AJndsw0GP8w6Wzxs/MgAAbBrbqhe02JcRR4+eGgAmcJfq4uYfNH9l/MgAALAp/Ebz1+EXVHcYPzIATOfRDQc/zntg5OPGjwwAABvaE1qsBn/k+JEBYHq/2fxvfy6r7jF+ZAAA2JDuV13R/PX300dPDADrxI7qlc0/iJ5V3Xj01AAAsLHcrPps89fdL2uo3QFgyzqsem/zD6bvq24wemoAANgYjqz+rfnr7Xc13FoIAFve8S12M+FbqoNGTw0AAOvbodU7mr/O/nhuHASAa/j66qLmH1xfUm0fPTUAAKxPO6pXN399/aXqpNFTA8AG8OBqV/MPsv9j/MgAALAuPaf56+qd1YPGjwwAG8cvNf9Au1b91/EjAwDAuvKTLVZT//z4kQFg4/mT5h9sr6q+a/zIAACwLjyh2t389fSzx48MABvT/tXrm3/Qvay69+ipAQBgWg+srmj+OvrVDWdnAQD76OiGW0/mHXy/UJ04emoAAJjG7atzm79+/mh11OipAWATOKk6r/kH4Y9Vx42eGgAAxnVC9Ynmr5vPbVgAAwDmdEp1cYu9STp29NQAADCO4xpe3M5bL19U3W301ACwCT204SrfeQfld1aHj54aAABW64bV+5u/Tt5ZPXj01ACwif1I8w/Ma9Ubq4NGTw0AAKtxUPXPzV8f766+b/TUALAF/HaLLWL9VbV99NQAALBcO6qXtlht/IzRUwPAFrGtel6LDdQv2PPnAADARrS9+ssWq4n/cPTUALDF7Khe0WID9h+MnhoAAJbj2S1WC/9dQ00NAKzYIdXbW2zg/sXRUwMAwGJ+pcVq4LdVB4+eGgC2sBtXpzf/4L27+v7RUwMAwHx+uKGGnbf+/VR1/OipAYDuWJ3T/IP4rty8AgDA+vcD1VXNX/d+vrrd2KEBgC+7c/XF5h/Mr6qeMHpqAADYN09ssZ1X51Z3Gj01APAV7l5d1GI7sR43emoAAPjqHt9iO68urE4ZPTUAcL2+tbq8xRaxvmf01AAAcN2+t6FGnbe+vay6/+ipAYCv6XEt9obqsurbRk8NAADX9B0t/nL2u0dPDQDss1Nb7IyAK6qHjp4aAAAGD2+oSRc54/Xxo6cGAGb2k80/4K9Vl1YPGD01AABb3UNabPFqrXrS6KkBgLn9RosN/JdU9xs7NAAAW9b9G16kLlLD/uroqQGAhWyrntdiBcAF1b3HDg4AwJZzn4bac5Ha9U9HTw0ALMW26jkt/jnht48dHACALePhLXZg+1r1Rw21LwCwQW2vXthiBcEV1SPGDg4AwKb3yBY/8+pPsngFAJvCjupFLb6I9Z1jBwcAYNN6dIsvXj03i1cAsKkcUL2mxQqEy6uHjh0cAIBNZxmfDf5ttd/YwQGA1du/elWLFQq7qsePHRwAgE3jCQ015SI16YsavjIAADapA6q/b/FFrFPHDg4AwIb3Ay2+ePXXWbwCgC3h4OoNLb6I9YNjBwcAYMN6UrW7xWrQVzR8VQAAbBE3qE5rsQLiqoZCBAAAvpqfaqgdF6k939DwIhYA2GIObPEzsdaqZ44dHACADWFbQ624aL35yoajMACALeqAhq3YixYVf1xtHzk7AADr1/bqOS1eZ748i1cAQENB8HctXly8KGcSAAAw1IR/3eL15d+mvgQArubA6tUtXmS8NG/IAAC2sgMbdk3ZeQUArMSO6oUtXmy8ueGQeAAAtpYjqre0eD35Fw21KQDAddrRUDAsWnS8qzpm3OgAAEzo2Oo9LV5H/s+crQoA7IP9qr9q8eLjfdVxI2cHAGB8J1QfbPH68fnZeQUAzGBZO7E+Wt1m3OgAAIzottXHW7xu/LPsvAIA5vSUFi9Gzqu+ZezgAACs3H0bar1F68WnjB0cANh8frLa3WJFyeXVY8cODgDAyjyuocZbpEa8qvrxsYMDAJvXE6qdLVag7K5+YezgAAAs3dNa/AXnzur7Rs4NAGwBj2/xRay16hnVtpGzAwCwuG3Vb7V4PXhlducDACt0/+rCFi9aXlYdPHJ2AADmd0j18havAy+o7jdudABgKzqlOrfFi5e3V0ePnB0AgNkdU/1ri9d/51TfOHJ2AGAL+8aGAmTRIua91QkjZwcAYN/dtPpgi9d9n6/uOnJ2AIBOqk5v8WLmjOrkkbMDAPC13a36TIvXe5+sbj9ydgCA/3Sj6m0tXtRc1nAVMwAA68Pjq8tbvM57a3XUyNkBAL7CodWrW7y42d1wJTMAANPZVj2zoTZbtL57SXXguPEBAK7fAdVftniRs1b9SbXfuPEBAKj2r/685dR0/3PPnwcAsO48peUUPKc13HYDAMA4jqv+peXsqn/yyNkBAGb2A9WVLV78fLy6w7jRAQC2pJMaDlpftH67snrCyNkBAOb2XxoOZl+0CPpC9S0jZwcA2EoeUJ3b4nXbJdUjRs4OALCwU6rPt5xt6E9rOFAUAIDl2N7yDms/q7rzuPEBAJbnpOpjLV4UrTUcBOoWGwCAxR1cvbDl1GgfqW43bnwAgOU7vPr7llMgva+65ajpAQA2l1tXH2g5tdmrqsPGjQ8AsDo7qj9sOYXSuQ1nNQAAMJsHVl9sOTXZsxpqPACATeepLeechcurHxo5OwDARvaj1RUtXoddVf38yNkBAEb3HdUFLefN33OrA8aNDwCwoRxcvajl1F7nV98+bnwAgOmcUn225RRSb6yOHTc+AMCGcEL1lpZTc32mutu48QEApndC9c6WU1Cd27CzCwCAwaNa3q73t1ZHjxsfAGD9WOYNhTurX6i2jdoCAID1ZVv1y9WullNjvTI3DQIAtL16Rss53H2tenl1xKgtAABYH45seS8Hd1e/lpeDAADX8ODqSy2n4Dqjuse48QEAJnWv6qyWU0udVz1o3PgAABvHXapPtpzC69Lq+8eNDwAwiR+pLms5NdTHqjuNGx8AYOM5vHpFyynA1qq/rA4dtQUAAOM4ouH4hGXVTX+X864AAPbZftXvt7xi7F3ViaO2AABgtW5fvbfl1Uu/U+0YtQUAAJvEd1cXt5yi7LLqyTmIFADY2LY11DSXt5wa6YLqYaO2AABgEzq55Z2LtdbweeKNRm0BAMByHF/9Y8uriz5R3XnUFgAAbGInVG9sucXaN43aAgCAxdyr+nTLq4deVx07ZgMAALaCbdVTql0tp2jbVT0tZz0AAOvb/tWzqt0tpwa6MscqAACs3EOrL7bct4/Hj9oCAIB9c+OWuwv9nOpBo7YAAGALu0n11pZXzJ3fcGA8AMB68b0NB6wv86XdMaO2AACADqye3fKKut0N10cfMGYjAACu5cDq91veJ4Nre/68/cdsBAAA1/Tw6ryWV+B9uLrbqC0AABh8c8NlM8uqa77YcPwCAADrwC2qd7S8Ym9nDngHAMazf/XMhhpkWfXMv1Q3G7MRAAB8bYdWL255Rd9a9YYUfgDAat2yenPLrWFeVB08YhsAAJjRqdVFLa8AvCRXTQMAy7etoca4tOXVLV+qvmvMRgAAML87VR9suW8yX1wdNWYjAIBN6+jqZS23VnlfdYcxGwEAwOL2bzjH6qqWVxh+ofrOEdsAAGw+j2vYKbWs+uSqhppnvxHbAADAkj265d5SuLv6o+rwMRsBAGx4N6ie01BLLKsuObd6xJiNAABgdY6tXttyt+mf3bA4BgDwtXxX9bmWW4u8pjpmzEYAALB6ew9KvaLlFo8vSfEIAFy3YxtqhWXWHlfkghkAgE3vPtUnW24h+Znq4WM2AgBY9x7VsGN7mTXHx6p7jdkIAACmc3j1vJZbUK5VL2q4VQgA2LqObbi9eNl1xp9Wh43YDgAA1olvq85qucXll6onjtkIAGBd2NZQA5zfcmuLM6tvHbEdAACsQ8dVr2r5b0lfVt14xHYAANO5afXKll9PvDxnbQIAcDWPqb7YcovOS6qnVQeM1wwAYEQHNIz1l7bcGuKLDbUJAAB8hZtXb2j5b0/fX91jxHYAAKt3r+oDLb9ueE11/IjtAABgA9pR/VJ1ZcstRndWv1MdOl5TAIAVOKz6vWpXy60Vrqh+saEWAQCAffJ11Ttb/lvVT1UPHbEdAMDyPLI6o+XXB/9anTRiOwAA2ER2VL/Q8s+1WKtemkPeAWCjuGnDgerLrgcuqf5bdl0BALAEt69Oa/lF6/nVT1b7jdcUAGAG+1U/XV3Y8uuAN1cnjtcUAAC2gm3VqS3/psK16j/yWSEArDcPrz7W8sf9c3PDIAAAK3ZCq/mEYK16dXXr8ZoCAFyHk6rXt5qx/mW5YRAAgBE9pjqn5Re2V1TPqg4frykAQHWDhjF42TcRr1VfyK4rAAAmcrNWtxvr49UjxmsKAGxpj264KXgVY7qLWwAAWBdWdaX2WvXa6nbjNQUAtpQ7trrPBT+VMy4BAFhnDqt+r9rVaj4r/N3qhqO1BgA2txu1us8Fd1a/Ux06WmsAAGBGt6ve0Gre5F5UPa06aKzGAMAmc1j1zOriVjNWv746cbTWAADAArZVpzZck72K4viMPX/+trEaBAAb3PbqidVZrWZs/kLGZgAANqjjqhe0mkJ5rXpndZ/RWgMAG9N9q3e1mrF4d/Wn1VGjtQYAAFbkka3uZqOrqudXNx2tNQCwMdyielHDItMqxuCP55B2AAA2mYOrX68uazVF9CXV0xvO9gCArewG1W+22jH3v+dMSgAANrEbN3xWuKq3wRc2HE57g7EaBADrxA0axsCLWt3ngi+oThirQQAAMLX7Vh9sNQX2WnVO9ZS8HQZg8zuoYcw7p9WNq+/PuZMAAGxR+1VPrs5vdQX36Q23Lu0YqU0AMJb9Gsa4M1rtC6FTG24xBACALe34VvtZ4Vr14eoxud4bgI1ve8Oi0kda3bh5VfWs3C4IAABf4YGt9rPCteot1b3HahAALNl9q7e12rHyfXv+OQAAwPXY0fA5xNmttjh/bXWPkdoEAIu6d/X6Vjs2fqb6oXwuCAAA++zghgNpL2i1xfpp1cNHahMAzOrh1dtb7Vh4fsOZlAeM1CYAANh0jm44g2NnFrIA2DrGWLja2TDG3mikNgEAwKZ3h+rVrbaQt5AFwNTGWLhaq15S3X6kNgEAwJbzwOr9WcgCYHMZa+HqvdW3jtQmAADY0vavfqLVH/S+Vv1Tw6IZAKzCg6p/bvXj2WeqH2sYQwEAgBEd0Dg3Fq5VH6xOTeEPwOIOajg0/WOtfvz6bMNYafwCAICJHdpwY+GXWv1E4NMNk45Dx2gYAJvKEdXTGufFy3kNY+MhYzQMAADYd0dVz6wubfUTg3MaJiFubgLgazmh4ba/C1r9+HRBw8LV4aO0DAAAmNtNGiYKl7f6icLFe/5ZNx+lZQBsJLetXtA449FlDS9xjh6lZQAAwNKcVL2s2t04E4fnVSeP0jIA1rNvqJ7fOAtXV1Uvrm4/SssAAICVuWPDG/BdrX4isVa9Kwe+A2w1BzUclv7uxhlrdlZ/Wt1qjMYBAADjuXVDsb+zcSYXZzeck+VzDoDN65iGvv5zWbgCAACWaOyFrMsbdoDdeYzGATCKuzTe+VYWrgAAYAu7S+OdkbXWcE7JK6sHVttGaB8Ay7Wt+rbq1Q19+lhjx0uqrxuhfQAAwDp2l+pvG28ha636aPUz1ZEjtA+AxRxV/Wz1H403Tuw9nN3CFQAAcA1fV72wurLxJiiXNtxe+I0jtA+A2XxT9b8a+uqxxoUrq79ouEkXAADgeh3bcCDveY03YVmrPlI9JbuyAKZ0VENf/JHGHQPOaxh7jll5CwEAgE3l8OrJ1VmNO4m5sOGg3pNX30QA9vj6hkPZL2vcPv/MhrHmsNU3EQAA2MwOq366OqNxJzW7qzdVP5CJDcAqHF79UPWWxj0Hca36dPVT1SGrbiQAALC17N+wmPShxp3krFUXNZzDct/cYAiwiO3V/avnVxc3fn/+weoJDWMKAADAymyvHl79U+O/sV+rPlH9anWLVTcUYBO5VcMZU59q/H57d/W66iF5CQEAAEzgNtUzqy81/oRorXpXw9kpN1p1QwE2oKMb+sh3NU0ffV7DGHHrVTcUAABgXxxd/VLjH/i+97mg+sPqnnm7D2xt26pvrv6o4VKMKfrkM6un5uUCAACwTu1ffW/1jqaZNK1Vn6z+v+rOK24rwHpycsNup083Xf/7r9Vjc74VAACwgdyz+pvqyqabTH2w+uV8vgJsTidWv9I0l2vsfa5s6OvvseK2AgAArNQNqydW/9Z0E6y1hgne0xomfAAb1W0b+rIpF632viB4YnXESlsLAAAwsh0Ntxf+fXVV0026dlWnVT9T3XylLQZYjltW/616e9P3n6+uHtpwIy0AAMCmdovqGdXZTbuDYHfDeV2/kM8MgfXlxOop1f9p2n5yrfps9fQs+gMAAFvU9uqB1UuqnU0/SftE9azq3rnNEBjXtoa+51kNl1FM3R/ubOibH5jdVgAAAP/pdtXvVp9v+onbWsP5Lr9WfWMWs4DV2F59U/XrTX9O4N7n7Oq3G87aAgAA4Hrs3ZX1guqSpp/MrVVfbNiJcGrDofQA8zqyoS95SXVe0/dvaw197Z827ACz2woAAGBGJzScT/WRpp/g7X0ubTiI/kerm6yu6cAmcrPqx6p/qC5r+n5s7/Ph6ueq41bXdAAAgK3lm6vnVRc2/aRv77O7enfD5z8+NQT22vtp4NOr9zZ9X3X154LqudU9V9Z6AAAAOqzh85tXVlc0/WTw6s+51YurH85tXbDV3KL6f6qXtn4+Ddz7XF69vHp8dciq/gUAAABw3Q6uHlO9urqy6SeJ137ObjjL6zHVUSv6dwBM46i+fJbV2U3f31z7ubKhb3xMQ18JAADAOnDz6inVB5p+4nhdzxXVG6unVnfLQcmw0Wxv+FT4l6o3tT4XzdcaPln8ueqmK/m3AAAAwNLcufrN6vSmn0xe3/OlhsPgf77hrJz9VvJvApjXftXdGy6SeE11ftP3G9f3fKr6f6s7reTfBAAAACu1rbpPw/Xwn2/6SeZXey5suKHsKdU9sqAFY9u/ulfDLsnXVhc1fb/w1Z6zqz9uuODCBRIAbGoGOgC2kh0NE71HV49q/R+yfnH1turNe573V5dMmgg2l8Oqk6v7VfdtWLw6dMpA++D06u/2PG9vuAkVADY9C1gAbGV3qh5WPbxh4roRxsWzq9MaFrbeXf2fhrO1gK/uwOqUhvPnvrm6d3XCpIn2zVrDQtVLGw5k/+S0cQBgGhuhUAeAMdyi+s6G27ru2cY5YH1nw6H1exe0TssEF2pYoL5bX16wukvDJ4Ibwe7qXxoWrV7RsOsKALY0C1gA8JVOrB5ZPaTh/KyNMund62MNk993Vu9pWODy6SGb2aENnwLeteHQ9Xs2/P94I7myemvDYfGvqj4xbRwAWF8sYAHAV3dww+6Nhzfs0Frv52Zdn7MbdmjtfT6UnVpsTHeqTuqaO6w2wqeA1+X06pUNnwaeVl0+bRwAWL8sYAHAvttefWPDuVkPbdjtsZHH0k9X793zfKz69z3PlRNmgr0OrO6457ltw//f7trwue9GtdawgPyaPc+7cwg7AOyTjVx0A8DUbtzwmeEjqvs33Gi20e1q+HTp3xp2ae19/qPhvC1YtgOq2zXsqNq7u+rO1a2r/SbMtSwXVf/c8Fnga6rPTRsHADYmC1gAsBz7N9xk+O17nm9o4xwEvy92Nixifahhl9ZZ1ccbFrvOathZAtdne3XT6jYNZ1PdtGFn1Z0adldttHPmvpqrGnZWva56fcN5dBZ/AWBBFrAAYDUObThI+oF7nrtNG2flzu7L52pd/flodfGEuRjP4Q07qW59tWfvjqojJ8w1hndX/7TneXt16bRxAGDzsYAFAOO4Y8POrPs17NQ6dtI049nZcFD1J6oz9zyfvtrPZ1ZXTBWOmRxU3exqzy2u9vOJe369GT752xefb1ioelPDTquPTJoGALYAC1gAMI07Vt9S3ae6b8MnVVvV57rmgtbpDTu6zq7OudrD6hyz5zm2Or7hVr9bNNy6edOGRarjJ0s3vTOqt+x53poFKwAYnQUsAFgfbtWXF7Pu03AuEF+2qy8vZJ1dfWHPz5/b8/N51QXXer40SdLpHVkdsee54Z6/Hlkd17AIdfWFqr0LV1tl59S++mjDQtXeRavTp40DAFjAAoD16YSGHVoPaPjk8I7VjkkTbUzXXtQ6f89fL2k4m2vnnv9sZ8NtcZdXl13r7+2qLrzan3nVtX69tue/99XcsGvWXTfomv973qBhEemGDbfyHVodUh14rb+3f8Ntl4f15UWqaz/M5qrqw9Xbqjc2LFy5KRAA1hkLWACwMRxenVLdo7r7nue4SRPBxvS56h17nn+t3tWweAkArGMWsABg47pl11zQ+oaGHTvA4PLqvX15wepf8jkgAGxIFrAAYPM4oPqm6uurk6u7VndquD0ONrvLq39rWLB6/57nndWVU4YCAJbDAhYAbG77VXdoWND6+qs9R08ZChZ0TvW+qz3vbzh4fdeUoQCA1bGABQBb000aFrLu3nBA/EkNNx/uP2UouJYrq481HLL+7w2fAb6v+uyUoQCA8VnAAgD22r86sWEx6w4Nnx/eoWGBy2eIrNJl1UcaFqk+tOfnD1WfyK4qACALWADA17a9ulXDwtZdGxa5TqxuUx07YS42ns83LEp9fM/z3obdVZ+udk8XCwBY7yxgAQCL2L+6WXXr63hOqg6eLhoTuLRhF9Unr+M5s9o5XTQAYCOzgAUArMpBDWdt3ay6eXWLPT/v/fXNq8MmS8c8Lq5Or85oWJA6c8/Pe399VnXFZOkAgE3LAhYAMKUju+aC1nF7nuOrYxo+UTw+C12rdnF1dsPtfudUn2v43O/zDYtTpzcsTn1pqoAAwNZmAQsA2AgObljMOqFhYeuYPT8f1bAIdmR1w2v9fINJkk7vwoaFpvP3/PXqP3+xay5U7f35skmSAgDsIwtYAMBmtaOvXNg6Ys+v92tY4DqwOqQ6tDpgz9/fb89f9/69g7rmWV4H7Pnv77VfdfjXyHJhddXVfn1JdeXVfn1ZdfnV/vMLGm7fu2DPry9pOF/qij1/1q6GRakL+spFqqv/cwAAAAAAAAAAAAAAAAAAAAAAAAAAAAAAAAAAAAAAAAAAAAAAAAAAAAAAAAAAAAAAAAAAAAAAAAAAAAAAAAAAAAAAAAAAAAAAAAAAAAAAAAAAAAAAAAAAAAAAAAAAAAAAAAAAAAAAAAAAAAAAAAAAAAAAAAAAAAAAAAAAAAAAAAAAAAAAAAAAAAAAAAAAAAAAAAAAAAAAAAAAAAAAAAAAAAAAAAAAAAAAAAAAAAAAAAAAAAAAAAAAAAAAAAAAAAAAAAAAAAAAAAAAAAAAAAAAAAAAAAAAAAAAAAAAAAAAAAAAAAAAAAAAAAAAAAAAAAAAAAAAAAAAAAAAAAAAAAAAAAAAAAAAAAAAAAAAAAAAAAAAAAAAAAAAAAAAAAAAAAAAAAAAAAAAAAAAAAAAAAAAAAAAAAAAAAAAAAAAAAAAAAAAAAAAAAAAAAAAAAAAAAAAAAAAAAAAAAAAAAAAAAAAAAAAAAAAAAAAAAAAAAAAAAAAAAAAAAAAAAAAAAAAAAAAAAAAAAAAAAAAAAAAAAAAAAAAAAAAAAAAAAAAAAAAAAAAAAAAAAAAAAAAAAAAAAAAAAAAAAAAAAAAAAAAAAAAAAAAAAAAAAAAAAAAAAAAAAAAAAAAAAAAAAAAAAAAAAAAAAAAAAAAAAAAAAAAAAAAAAAAAAAAAAAAAAAAAAAAAAAAAAAAAAAAAAAAAAAAAAAAAAAAAABgH/xfIAppuaq+RUMAAAAASUVORK5CYII=;" parent="7" vertex="1">
                    <mxGeometry x="510" y="200" width="360" height="360" as="geometry"/>
                </mxCell>
                <mxCell id="10" value="&lt;h1&gt;&lt;font style=&quot;font-size: 36px;&quot;&gt;&lt;br&gt;&lt;/font&gt;&lt;/h1&gt;&lt;h1&gt;&lt;font style=&quot;font-size: 36px;&quot;&gt;V = 4/3 * 3.14 * r&lt;sup&gt;3&lt;/sup&gt;&lt;/font&gt;&lt;/h1&gt;" style="text;html=1;align=center;verticalAlign=middle;resizable=0;points=[];autosize=1;strokeColor=none;fillColor=none;" parent="7" vertex="1">
                    <mxGeometry x="10" y="190" width="310" height="150" as="geometry"/>
                </mxCell>
                <mxCell id="12" value="radius = ______" style="text;html=1;align=center;verticalAlign=middle;resizable=0;points=[];autosize=1;strokeColor=none;fillColor=none;fontSize=36;" parent="7" vertex="1">
                    <mxGeometry x="20" y="470" width="280" height="60" as="geometry"/>
                </mxCell>
                <mxCell id="13" value="calculate" style="rounded=1;whiteSpace=wrap;html=1;fontSize=36;" parent="7" vertex="1">
                    <mxGeometry x="60" y="570" width="180" height="60" as="geometry"/>
                </mxCell>
            </root>
        </mxGraphModel>
    </diagram>
</mxfile>